<svg viewBox="0 0 37 37" fill="none" xmlns="http://www.w3.org/2000/svg">
<g clip-path="url(#clip0_2834_4069)">
<path d="M18.5 37C28.7173 37 37 28.7173 37 18.5C37 8.28273 28.7173 0 18.5 0C8.28273 0 0 8.28273 0 18.5C0 28.7173 8.28273 37 18.5 37Z" fill="#32BA7C"/>
<path d="M13.7729 26.8455L23.2856 36.3581C31.1641 34.2571 37.0001 27.0789 37.0001 18.5001C37.0001 18.325 37.0001 18.1499 37.0001 17.9748L29.53 11.0884L13.7729 26.8455Z" fill="#0AA06E"/>
<path d="M18.9669 22.6436C19.7839 23.4606 19.7839 24.8613 18.9669 25.6783L17.2745 27.3707C16.4574 28.1878 15.0568 28.1878 14.2398 27.3707L6.82811 19.9007C6.01107 19.0837 6.01107 17.683 6.82811 16.866L8.52054 15.1736C9.33757 14.3565 10.7382 14.3565 11.5552 15.1736L18.9669 22.6436Z" fill="white"/>
<path d="M25.4451 9.74608C26.2621 8.92904 27.6627 8.92904 28.4798 9.74608L30.1722 11.4385C30.9892 12.2555 30.9892 13.6562 30.1722 14.4732L17.3331 27.254C16.516 28.071 15.1154 28.071 14.2984 27.254L12.6059 25.5615C11.7889 24.7445 11.7889 23.3439 12.6059 22.5268L25.4451 9.74608Z" fill="white"/>
</g>
<defs>
<clipPath id="clip0_2834_4069">
<rect width="37" height="37" fill="white"/>
</clipPath>
</defs>
</svg>
