<svg viewBox="0 0 91 75" fill="none" xmlns="http://www.w3.org/2000/svg">
<path d="M60.6328 0.00656935C49.4535 -0.219523 37.9227 6.25485 34.7598 20.8636C21.8863 16.4198 10.2628 25.1844 11.4702 39.1788C4.73461 41.9323 0 48.5871 0 56.4089C0 66.7084 8.19869 75.0001 18.3828 75.0001H40.7139C40.7077 68.7408 40.6947 56.1816 40.6947 53.8025L35.4579 55.722C31.6588 57.3778 28.8528 52.5394 32.1063 49.5269L42.015 39.7884C44.2782 37.4996 46.9813 37.7621 48.9849 39.7884L58.8936 49.5269C62.1471 52.5394 59.3412 57.3778 55.542 55.722L50.3052 53.8025V75.0001H72.6172C82.8013 75.0001 91 66.7084 91 56.4089C91 48.8284 86.5509 42.3481 80.1455 39.4483C92.557 14.9778 76.9718 0.336515 60.6328 0.00656935Z" fill="#B9CEFF"/>
<path d="M60.6328 0.00358991C60.0101 -0.00883274 59.3265 0.0127916 58.7031 0.0407426C44.4246 22.7984 66.4914 39.4442 80.1455 39.4442C92.557 14.9736 76.9718 0.333535 60.6328 0.00358991Z" fill="#739EFF"/>
</svg>
