<svg viewBox="0 0 56 56" fill="none" xmlns="http://www.w3.org/2000/svg">
<g id="file-upload 2" clip-path="url(#clip0_3488_9744)">
<path id="Vector" d="M46.55 12.9173L38.4184 4.78565C35.3337 1.70099 31.2317 0.00232012 26.8684 0.00232012H16.3334C9.90035 -1.32178e-05 4.66669 5.23365 4.66669 11.6667V44.3333C4.66669 50.7663 9.90035 56 16.3334 56H39.6667C46.0997 56 51.3334 50.7663 51.3334 44.3333V24.465C51.3334 20.1017 49.6347 16.0043 46.55 12.9173ZM43.2507 16.2167C43.9927 16.9587 44.6204 17.7823 45.129 18.6667H35C33.7144 18.6667 32.6667 17.619 32.6667 16.3333V6.20432C33.551 6.71299 34.377 7.34065 35.1167 8.08265L43.2484 16.2143L43.2507 16.2167ZM46.6667 44.3333C46.6667 48.1927 43.526 51.3333 39.6667 51.3333H16.3334C12.474 51.3333 9.33335 48.1927 9.33335 44.3333V11.6667C9.33335 7.80732 12.474 4.66665 16.3334 4.66665H26.8684C27.2487 4.66665 27.6267 4.68532 28 4.72032V16.3333C28 20.1927 31.1407 23.3333 35 23.3333H46.613C46.648 23.7067 46.6667 24.0847 46.6667 24.465V44.3333ZM36.6497 33.789C37.562 34.7013 37.562 36.176 36.6497 37.0883C36.1947 37.5433 35.5974 37.772 35 37.772C34.4027 37.772 33.8054 37.5433 33.3504 37.0883L30.3334 34.0713V44.3333C30.3334 45.6213 29.288 46.6667 28 46.6667C26.712 46.6667 25.6667 45.6213 25.6667 44.3333V34.0713L22.6497 37.0883C21.7374 38.0007 20.2627 38.0007 19.3504 37.0883C18.438 36.176 18.438 34.7013 19.3504 33.789L23.1164 30.023C25.809 27.3303 30.191 27.3303 32.886 30.023L36.652 33.789H36.6497Z" fill="#739EFF"/>
</g>
<defs>
<clipPath id="clip0_3488_9744">
<rect width="56" height="56" fill="white"/>
</clipPath>
</defs>
</svg>
