<svg viewBox="0 0 19 19" fill="none" xmlns="http://www.w3.org/2000/svg">
<path d="M18.3291 4.06855C18.507 4.06855 18.6777 3.99782 18.8035 3.87191C18.9293 3.746 19 3.57523 19 3.39717V0.671378C19 0.493318 18.9293 0.32255 18.8035 0.196642C18.6777 0.0707344 18.507 0 18.3291 0H15.6119C15.434 0 15.2634 0.0707344 15.1375 0.196642C15.0117 0.32255 14.941 0.493318 14.941 0.671378V1.34276H4.06568V0.671378C4.06568 0.493318 3.99499 0.32255 3.86917 0.196642C3.74336 0.0707344 3.57271 0 3.39477 0H0.670904C0.492969 0 0.322322 0.0707344 0.196503 0.196642C0.0706845 0.32255 0 0.493318 0 0.671378V3.39046C0 3.56852 0.0706845 3.73929 0.196503 3.8652C0.322322 3.9911 0.492969 4.06184 0.670904 4.06184H1.34181V14.9382H0.670904C0.492969 14.9382 0.322322 15.0089 0.196503 15.1348C0.0706845 15.2607 0 15.4315 0 15.6095V18.3286C0 18.5067 0.0706845 18.6775 0.196503 18.8034C0.322322 18.9293 0.492969 19 0.670904 19H3.38807C3.566 19 3.73665 18.9293 3.86247 18.8034C3.98829 18.6775 4.05897 18.5067 4.05897 18.3286V17.6572H14.9276V18.3286C14.9276 18.5067 14.9983 18.6775 15.1241 18.8034C15.2499 18.9293 15.4206 19 15.5985 19H18.3157C18.4936 19 18.6643 18.9293 18.7901 18.8034C18.9159 18.6775 18.9866 18.5067 18.9866 18.3286V15.623C18.9866 15.4449 18.9159 15.2741 18.7901 15.1482C18.6643 15.0223 18.4936 14.9516 18.3157 14.9516H17.6448V4.06855H18.3291ZM16.3164 14.9449H15.6455C15.4675 14.9449 15.2969 15.0156 15.1711 15.1415C15.0453 15.2674 14.9746 15.4382 14.9746 15.6163V16.2876H4.06568V15.6163C4.06568 15.4382 3.99499 15.2674 3.86917 15.1415C3.74336 15.0156 3.57271 14.9449 3.39477 14.9449H2.72387V4.06855H3.39477C3.57271 4.06855 3.74336 3.99782 3.86917 3.87191C3.99499 3.746 4.06568 3.57523 4.06568 3.39717V2.7258H14.9343V3.39717C14.9343 3.57523 15.005 3.746 15.1308 3.87191C15.2566 3.99782 15.4273 4.06855 15.6052 4.06855H16.2761L16.2963 9.50671L16.3164 14.9449Z" fill="white"/>
<g clip-path="url(#clip0_3099_5627)">
<path d="M14.5104 5.88428C14.1783 5.55149 13.639 5.5517 13.3064 5.88428L7.88753 11.3069L5.47906 8.89692C5.14649 8.56413 4.6074 8.56413 4.27483 8.89692C3.94226 9.22971 3.94226 9.76915 4.27483 10.1019L7.28529 13.1144C7.45147 13.2807 7.66937 13.364 7.8873 13.364C8.10522 13.364 8.32333 13.2809 8.48951 13.1144L14.5104 7.08927C14.843 6.75671 14.843 6.21704 14.5104 5.88428Z" fill="white"/>
</g>
<defs>
<clipPath id="clip0_3099_5627">
<rect width="10.7345" height="10.7415" fill="white" transform="translate(4.02542 4.12866)"/>
</clipPath>
</defs>
</svg>
