<svg viewBox="0 0 21 21" xmlns="http://www.w3.org/2000/svg">
<g id="icon_attribute 3">
<path id="Vector" d="M16.625 4.375V16.625H4.375V4.375H16.625ZM3.5 2.625C3.0625 2.625 2.625 3.0625 2.625 3.5V17.5C2.625 18.025 2.975 18.375 3.5 18.375H17.5C18.025 18.375 18.375 18.025 18.375 17.5V3.5C18.375 2.975 18.025 2.625 17.5 2.625H3.5Z"/>
<path id="Vector_2" d="M14.875 7.7876C14.875 7.2626 14.525 6.9126 14 6.9126H9.625V6.4751C9.625 5.9501 9.1875 5.6001 8.75 5.6001C8.225 5.6001 7.875 5.9501 7.875 6.4751V6.9126H7C6.475 6.9126 6.125 7.2626 6.125 7.7876C6.125 8.3126 6.475 8.6626 7 8.6626H7.875V9.1001C7.875 9.6251 8.225 9.9751 8.75 9.9751C9.275 9.9751 9.625 9.6251 9.625 9.1001V8.6626H14C14.525 8.6626 14.875 8.3126 14.875 7.7876ZM6.125 13.3001C6.125 13.8251 6.475 14.1751 7 14.1751H11.375V14.6126C11.375 15.1376 11.8125 15.4876 12.25 15.4876C12.775 15.4876 13.125 15.1376 13.125 14.6126V14.1751H14C14.525 14.1751 14.875 13.8251 14.875 13.3001C14.875 12.7751 14.525 12.4251 14 12.4251H13.125V11.9876C13.125 11.4626 12.775 11.1126 12.25 11.1126C11.725 11.1126 11.375 11.4626 11.375 11.9876V12.4251H7C6.5625 12.4251 6.125 12.7751 6.125 13.3001Z"/>
</g>
</svg>
