<svg width="16" height="16" viewBox="0 0 20 20" fill="none" xmlns="http://www.w3.org/2000/svg">
<g clip-path="url(#clip0_193_196)">
<path d="M6.47002 5.69L11.27 10.39C10.98 10.59 10.68 10.77 10.42 10.98C9.47015 11.7357 8.84718 12.8277 8.68002 14.03C8.66566 14.1076 8.63118 14.18 8.58002 14.24L5.69002 17.58C5.3913 17.9487 5.01525 18.2473 4.58844 18.4546C4.16163 18.662 3.69448 18.7731 3.22002 18.78C2.79859 18.8127 2.375 18.7559 1.97703 18.6135C1.57906 18.471 1.21569 18.2461 0.910721 17.9534C0.605755 17.6607 0.366084 17.3069 0.207415 16.9151C0.0487462 16.5233 -0.0253381 16.1024 -0.00998257 15.68C-0.00813744 15.1521 0.118798 14.6322 0.360415 14.1629C0.602032 13.6936 0.95145 13.2882 1.38002 12.98C2.54002 12.03 3.67002 11.05 4.82002 10.09L4.96002 9.99L4.56002 9.61L3.56002 8.61C3.41318 8.4805 3.29557 8.32123 3.21502 8.14279C3.13446 7.96434 3.0928 7.77079 3.0928 7.575C3.0928 7.37921 3.13446 7.18567 3.21502 7.00722C3.29557 6.82877 3.41318 6.6695 3.56002 6.54L7.70002 2.48C8.46002 1.78 9.22002 0.980001 9.99002 0.240001C10.0548 0.164048 10.1353 0.103055 10.2259 0.0612299C10.3166 0.0194053 10.4152 -0.00225449 10.515 -0.00225449C10.6148 -0.00225449 10.7135 0.0194053 10.8041 0.0612299C10.8948 0.103055 10.9752 0.164048 11.04 0.240001L12.04 1.15C12.1289 1.22547 12.1935 1.32559 12.2255 1.43772C12.2575 1.54985 12.2556 1.66896 12.22 1.78C12.13 2.21 12.04 2.65 11.95 3.11L13.22 2.86C13.3688 2.82341 13.5246 2.82631 13.6719 2.8684C13.8192 2.9105 13.953 2.99033 14.06 3.1L16.77 5.78L18.77 7.7C18.8806 7.79908 18.9649 7.92398 19.0155 8.06356C19.0661 8.20315 19.0814 8.35308 19.06 8.5C19.0426 8.62997 18.9869 8.75182 18.9 8.85C18.2 9.55 17.49 10.24 16.78 10.93L15.5 10.16L17.34 8.37V8.3C16.0067 7.00667 14.6734 5.71333 13.34 4.42C13.3035 4.3849 13.2585 4.35998 13.2093 4.34769C13.1602 4.33541 13.1087 4.33621 13.06 4.35L11.22 4.78C11.0756 4.8088 10.9261 4.80001 10.7861 4.75449C10.646 4.70896 10.5199 4.62822 10.42 4.52C10.3507 4.44655 10.3021 4.35599 10.2792 4.25759C10.2564 4.15919 10.2601 4.05649 10.29 3.96C10.41 3.37 10.53 2.79 10.66 2.2C10.66 2.01 10.66 1.87 10.48 1.78L6.47002 5.69Z" fill="white"/>
<path d="M9.69003 14.71C9.67414 13.9394 9.88812 13.1815 10.3047 12.533C10.7213 11.8845 11.3215 11.3748 12.029 11.0688C12.7364 10.7628 13.5189 10.6745 14.2768 10.8151C15.0346 10.9556 15.7334 11.3187 16.2841 11.858C16.8347 12.3973 17.2123 13.0884 17.3686 13.8431C17.5249 14.5979 17.4529 15.3821 17.1617 16.0957C16.8705 16.8094 16.3734 17.4202 15.7337 17.8501C15.094 18.2801 14.3408 18.5098 13.57 18.51C13.0654 18.5166 12.5644 18.4234 12.0959 18.2358C11.6274 18.0481 11.2006 17.7697 10.8401 17.4166C10.4795 17.0635 10.1923 16.6426 9.99492 16.1781C9.79756 15.7136 9.69394 15.2147 9.69003 14.71ZM13.56 15.71H15.13C15.3952 15.71 15.6496 15.6046 15.8371 15.4171C16.0247 15.2296 16.13 14.9752 16.13 14.71C16.1382 14.5737 16.1184 14.4372 16.0718 14.3089C16.0253 14.1805 15.9529 14.0631 15.8592 13.9638C15.7655 13.8645 15.6525 13.7854 15.5271 13.7314C15.4017 13.6775 15.2666 13.6498 15.13 13.65H11.99C11.7248 13.65 11.4705 13.7554 11.2829 13.9429C11.0954 14.1304 10.99 14.3848 10.99 14.65C10.99 14.9152 11.0954 15.1696 11.2829 15.3571C11.4705 15.5446 11.7248 15.65 11.99 15.65L13.56 15.71Z" fill="white"/>
</g>
<defs>
<clipPath id="clip0_193_196">
<rect width="19.03" height="18.77" fill="white"/>
</clipPath>
</defs>
</svg>
