<svg width="16" height="16" viewBox="0 0 20 20" fill="none" xmlns="http://www.w3.org/2000/svg">
<g clip-path="url(#clip0_193_202)">
<path d="M5.07004 10.37L4.02004 9.22L3.56004 8.76C3.3281 8.49986 3.19993 8.16352 3.19993 7.815C3.19993 7.46648 3.3281 7.13014 3.56004 6.87L3.97004 6.46L7.81004 2.73L10.34 0.22C10.4067 0.143615 10.4889 0.082386 10.5812 0.0404317C10.6735 -0.00152252 10.7737 -0.0232296 10.875 -0.0232296C10.9764 -0.0232296 11.0766 -0.00152252 11.1689 0.0404317C11.2612 0.082386 11.3434 0.143615 11.41 0.22C11.75 0.53 12.08 0.849999 12.41 1.15C12.51 1.23105 12.584 1.33954 12.6231 1.46213C12.6622 1.58472 12.6646 1.71606 12.63 1.84C12.53 2.27 12.44 2.71 12.35 3.18L13.04 3.05C13.29 3.05 13.54 2.95 13.79 2.93C13.9174 2.91646 14.0461 2.93292 14.1659 2.97807C14.2857 3.02322 14.3933 3.0958 14.48 3.19L18.95 7.56L19.4 8C19.4918 8.08162 19.5652 8.18174 19.6155 8.29377C19.6658 8.4058 19.6918 8.5272 19.6918 8.65C19.6918 8.7728 19.6658 8.8942 19.6155 9.00623C19.5652 9.11826 19.4918 9.21838 19.4 9.3L17.4 11.3L17.32 11.38L15.98 10.59L17.87 8.64L17.54 8.31L13.76 4.6C13.7215 4.55512 13.6706 4.52264 13.6136 4.50663C13.5567 4.49061 13.4963 4.49179 13.44 4.51L11.55 4.88C11.4312 4.90046 11.3091 4.89155 11.1944 4.85405C11.0798 4.81654 10.9761 4.75159 10.8923 4.66483C10.8085 4.57807 10.7471 4.47215 10.7136 4.35627C10.6801 4.2404 10.6755 4.11809 10.7 4C10.76 3.67 10.82 3.35 10.89 3C10.96 2.65 10.99 2.42 11.07 2.15C11.0998 2.07435 11.0987 1.99004 11.0669 1.91522C11.0351 1.8404 10.9752 1.78107 10.9 1.75L6.70004 5.94L11.7 10.79C11.4 11 11.09 11.19 10.82 11.41C9.87968 12.1539 9.2547 13.2253 9.07003 14.41C9.03158 14.578 8.94465 14.731 8.82003 14.85L5.88004 18.22C5.57541 18.5773 5.20049 18.868 4.77862 19.0741C4.35674 19.2802 3.89696 19.3971 3.4279 19.4178C2.95884 19.4384 2.49055 19.3623 2.05221 19.194C1.61387 19.0258 1.21486 18.7691 0.880035 18.44C0.364028 17.8999 0.0680652 17.1867 0.0500354 16.44C0.0200428 15.8879 0.125555 15.3368 0.357375 14.8348C0.589195 14.3328 0.940284 13.8952 1.38004 13.56L4.70004 10.67L5.07004 10.37Z" fill="white"/>
<path d="M17.88 13.99C17.5681 13.0917 16.9508 12.3314 16.1357 11.8416C15.3207 11.3519 14.3596 11.1637 13.42 11.31C12.477 11.5164 11.6405 12.0568 11.0647 12.8315C10.4889 13.6062 10.2127 14.5631 10.287 15.5255C10.3613 16.4879 10.7812 17.391 11.4691 18.0681C12.157 18.7453 13.0665 19.1508 14.03 19.21C14.25 19.21 14.47 19.21 14.68 19.15C15.2499 19.0616 15.7939 18.8509 16.2748 18.5325C16.7556 18.2142 17.162 17.7956 17.4659 17.3055C17.7699 16.8153 17.9642 16.2653 18.0357 15.693C18.1072 15.1208 18.0541 14.5398 17.88 13.99ZM15.57 16.12H14.95V16.7C14.926 16.9313 14.8172 17.1455 14.6445 17.3012C14.4718 17.457 14.2475 17.5432 14.015 17.5432C13.7825 17.5432 13.5582 17.457 13.3855 17.3012C13.2128 17.1455 13.104 16.9313 13.08 16.7V16.12H12.5C12.2687 16.096 12.0545 15.9872 11.8987 15.8145C11.743 15.6418 11.6568 15.4175 11.6568 15.185C11.6568 14.9525 11.743 14.7282 11.8987 14.5555C12.0545 14.3828 12.2687 14.274 12.5 14.25H13.08V13.69C13.0664 13.5591 13.0805 13.4268 13.1213 13.3017C13.1622 13.1766 13.2288 13.0614 13.3169 12.9637C13.4051 12.8659 13.5127 12.7878 13.633 12.7343C13.7532 12.6808 13.8834 12.6532 14.015 12.6532C14.1466 12.6532 14.2767 12.6808 14.397 12.7343C14.5173 12.7878 14.6249 12.8659 14.7131 12.9637C14.8012 13.0614 14.8678 13.1766 14.9087 13.3017C14.9495 13.4268 14.9636 13.5591 14.95 13.69V14.22H15.57C15.8013 14.244 16.0155 14.3528 16.1712 14.5255C16.327 14.6982 16.4132 14.9225 16.4132 15.155C16.4132 15.3875 16.327 15.6118 16.1712 15.7845C16.0155 15.9572 15.8013 16.066 15.57 16.09V16.12Z" fill="white"/>
</g>
<defs>
<clipPath id="clip0_193_202">
<rect width="19.7" height="19.44" fill="white"/>
</clipPath>
</defs>
</svg>
