<?xml version="1.0" standalone="no"?><!DOCTYPE svg PUBLIC "-//W3C//DTD SVG 1.1//EN" "http://www.w3.org/Graphics/SVG/1.1/DTD/svg11.dtd"><svg t="1689326986698" class="icon" viewBox="0 0 1024 1024" version="1.1" xmlns="http://www.w3.org/2000/svg" p-id="5073" xmlns:xlink="http://www.w3.org/1999/xlink" width="16" height="16"><path d="M864 192v576h64V192c0-70.4-57.6-128-128-128H352v64h448c35.2 0 64 28.8 64 64z" p-id="5074"></path><path d="M672 192H224c-70.4 0-128 57.6-128 128v512c0 70.4 57.6 128 128 128h448c70.4 0 128-57.6 128-128V320c0-70.4-57.6-128-128-128z m-73.235 489.51c12.445 12.445 12.445 32.81 0 45.255s-32.81 12.445-45.255 0L448 621.255l-105.51 105.51c-12.445 12.445-32.81 12.445-45.255 0s-12.445-32.81 0-45.255L402.745 576l-105.51-105.51c-12.445-12.445-12.445-32.81 0-45.255s32.81-12.445 45.255 0L448 530.745l105.51-105.51c12.445-12.445 32.81-12.445 45.255 0s12.445 32.81 0 45.255L493.255 576l105.51 105.51z" p-id="5075"></path></svg>