<svg t="1689673415122" class="icon" viewBox="0 0 1024 1024" version="1.1" xmlns="http://www.w3.org/2000/svg" p-id="2574" width="200" height="200"><path d="M193.070545 70.353455l5.422546 0.930909A34.909091 34.909091 0 0 1 226.862545 111.709091l-0.023272 0.069818-12.869818 72.541091a448.698182 448.698182 0 0 1 293.888-108.939636c246.830545 0 447.022545 197.911273 447.022545 442.181818s-200.192 442.181818-447.022545 442.181818c-160.186182 0-305.687273-84.084364-385.466182-218.158545a37.794909 37.794909 0 0 1 13.358545-51.921455 38.167273 38.167273 0 0 1 52.154182 13.288727c66.210909 111.243636 186.903273 180.992 319.953455 180.992 204.869818 0 370.850909-164.096 370.850909-366.382545S712.727273 151.179636 507.857455 151.179636c-107.287273 0-206.801455 45.265455-276.317091 121.995637h141.498181a34.909091 34.909091 0 0 1 0 69.818182h-209.454545c-2.606545 0-5.189818-0.279273-7.656727-0.837819a34.629818 34.629818 0 0 1-5.259637-0.512l-5.422545-0.930909a34.909091 34.909091 0 0 1-28.346182-40.494545L152.669091 98.629818a34.909091 34.909091 0 0 1 40.401454-28.276363z" fill="#ffffff" p-id="2575"></path></svg>