<svg viewBox="0 0 22 22" xmlns="http://www.w3.org/2000/svg">
<g id="search-alt 1" clip-path="url(#clip0_2237_7366)">
<path id="Vector" d="M14.6663 5.5C14.9095 5.5 15.1426 5.59658 15.3145 5.76849C15.4864 5.94039 15.583 6.17355 15.583 6.41667C15.583 6.65978 15.4864 6.89294 15.3145 7.06485C15.1426 7.23676 14.9095 7.33333 14.6663 7.33333H7.33301C7.08989 7.33333 6.85674 7.23676 6.68483 7.06485C6.51292 6.89294 6.41634 6.65978 6.41634 6.41667C6.41634 6.17355 6.51292 5.94039 6.68483 5.76849C6.85674 5.59658 7.08989 5.5 7.33301 5.5H14.6663ZM21.7311 21.7314C21.5592 21.9033 21.3261 21.9998 21.083 21.9998C20.8399 21.9998 20.6068 21.9033 20.4349 21.7314L18.2285 19.525C17.5751 19.942 16.8165 20.1646 16.0413 20.1667C15.2255 20.1667 14.428 19.9247 13.7496 19.4715C13.0713 19.0182 12.5425 18.374 12.2303 17.6202C11.9181 16.8665 11.8364 16.0371 11.9956 15.2369C12.1548 14.4367 12.5476 13.7017 13.1245 13.1249C13.7014 12.548 14.4364 12.1551 15.2366 11.9959C16.0368 11.8368 16.8662 11.9185 17.6199 12.2307C18.3737 12.5429 19.0179 13.0716 19.4712 13.7499C19.9244 14.4283 20.1663 15.2258 20.1663 16.0417C20.1643 16.8168 19.9417 17.5754 19.5247 18.2288L21.7311 20.4352C21.9029 20.6072 21.9995 20.8403 21.9995 21.0833C21.9995 21.3264 21.9029 21.5595 21.7311 21.7314ZM16.0413 18.3333C16.4946 18.3333 16.9377 18.1989 17.3145 17.9471C17.6914 17.6953 17.9851 17.3374 18.1586 16.9186C18.332 16.4999 18.3774 16.0391 18.289 15.5946C18.2006 15.15 17.9823 14.7417 17.6618 14.4212C17.3413 14.1007 16.933 13.8825 16.4884 13.794C16.0439 13.7056 15.5831 13.751 15.1644 13.9244C14.7456 14.0979 14.3877 14.3916 14.1359 14.7685C13.8841 15.1453 13.7497 15.5884 13.7497 16.0417C13.7497 16.6495 13.9911 17.2323 14.4209 17.6621C14.8507 18.0919 15.4336 18.3333 16.0413 18.3333ZM11.9163 20.1667H6.41634C5.687 20.1667 4.98752 19.8769 4.4718 19.3612C3.95607 18.8455 3.66634 18.146 3.66634 17.4167V4.58333C3.66634 3.85399 3.95607 3.15451 4.4718 2.63879C4.98752 2.12306 5.687 1.83333 6.41634 1.83333H17.4163C17.6595 1.83333 17.8926 1.92991 18.0645 2.10182C18.2364 2.27373 18.333 2.50688 18.333 2.75V10.0833C18.333 10.3264 18.4296 10.5596 18.6015 10.7315C18.7734 10.9034 19.0066 11 19.2497 11C19.4928 11 19.7259 10.9034 19.8979 10.7315C20.0698 10.5596 20.1663 10.3264 20.1663 10.0833V2.75C20.1663 2.02065 19.8766 1.32118 19.3609 0.805456C18.8452 0.289731 18.1457 0 17.4163 0L6.41634 0C5.20121 0.00145554 4.03627 0.484808 3.17704 1.34403C2.31782 2.20326 1.83446 3.3682 1.83301 4.58333V17.4167C1.83446 18.6318 2.31782 19.7967 3.17704 20.656C4.03627 21.5152 5.20121 21.9985 6.41634 22H11.9163C12.1595 22 12.3926 21.9034 12.5645 21.7315C12.7364 21.5596 12.833 21.3264 12.833 21.0833C12.833 20.8402 12.7364 20.6071 12.5645 20.4352C12.3926 20.2632 12.1595 20.1667 11.9163 20.1667Z"/>
</g>
<defs>
<clipPath id="clip0_2237_7366">
<rect width="22" height="22"/>
</clipPath>
</defs>
</svg>
