<svg width="10" height="10" viewBox="0 0 10 10" fill="none" xmlns="http://www.w3.org/2000/svg">
<path fill-rule="evenodd" clip-rule="evenodd" d="M1.4644 5.65013C1.07388 6.04065 1.07388 6.67382 1.4644 7.06434C1.85493 7.45487 2.48809 7.45487 2.87862 7.06434L4.99991 4.94305L7.12123 7.06437C7.51175 7.45489 8.14492 7.45489 8.53544 7.06437C8.92597 6.67384 8.92597 6.04068 8.53544 5.65016L5.71313 2.82784C5.71111 2.82579 5.70908 2.82374 5.70704 2.8217C5.32262 2.43728 4.70308 2.43127 4.31131 2.80368C4.30509 2.80959 4.29893 2.8156 4.29283 2.8217C4.29282 2.82171 4.29281 2.82172 4.2928 2.82173C4.29273 2.8218 4.29266 2.82187 4.2926 2.82194L1.4644 5.65013Z" fill="white"/>
</svg>
