<svg viewBox="0 0 14 14" fill="#595959" xmlns="http://www.w3.org/2000/svg">
    <path d="M6.88736 9.65749C6.90072 9.67456 6.9178 9.68837 6.93729 9.69787C6.95678 9.70737 6.97818 9.7123 6.99986 9.7123C7.02154 9.7123 7.04294 9.70737 7.06243 9.69787C7.08192 9.68837 7.099 9.67456 7.11236 9.65749L9.11236 7.12713C9.18557 7.03427 9.1195 6.89677 8.99986 6.89677H7.67665V0.853917C7.67665 0.775345 7.61236 0.71106 7.53379 0.71106H6.46236C6.38379 0.71106 6.3195 0.775345 6.3195 0.853917V6.89499H4.99986C4.88022 6.89499 4.81415 7.03249 4.88736 7.12535L6.88736 9.65749ZM13.5356 9.03249H12.4641C12.3856 9.03249 12.3213 9.09678 12.3213 9.17535V11.9253H1.67843V9.17535C1.67843 9.09678 1.61415 9.03249 1.53557 9.03249H0.464146C0.385575 9.03249 0.321289 9.09678 0.321289 9.17535V12.7111C0.321289 13.0271 0.576646 13.2825 0.892718 13.2825H13.107C13.4231 13.2825 13.6784 13.0271 13.6784 12.7111V9.17535C13.6784 9.09678 13.6141 9.03249 13.5356 9.03249Z"/>
</svg>
