<svg xmlns="http://www.w3.org/2000/svg" viewBox="0 0 29 29"><defs><style>.cls-1{fill:none;}.cls-2{}</style></defs><rect class="cls-1" x="2.83" y="2.83" width="28.35" height="28.35"/><rect class="cls-1" x="2.83" y="2.83" width="28.35" height="28.35"/><path class="cls-1" d="M2.83,2.83H31.18V31.18H2.83Z"/><polygon class="cls-2" points="21.73 18.19 29.96 22.99 26.45 23.99 28.96 28.34 26.91 29.52 24.4 25.17 21.77 27.71 21.73 18.19"/><path class="cls-2" d="M19.37,9.92h2.36v2.36h5.91a1.18,1.18,0,0,1,1.18,1.18v4.73H26.46V14.65H14.65V26.46h4.72v2.36H13.46a1.18,1.18,0,0,1-1.18-1.18V21.73H9.92V19.37h2.36V13.46a1.18,1.18,0,0,1,1.18-1.18h5.91Z"/><rect class="cls-2" x="5.2" y="19.37" width="2.36" height="2.36"/><rect class="cls-2" x="5.2" y="14.65" width="2.36" height="2.36"/><rect class="cls-2" x="5.2" y="9.92" width="2.36" height="2.36"/><rect class="cls-2" x="5.2" y="5.2" width="2.36" height="2.36"/><rect class="cls-2" x="9.92" y="5.2" width="2.36" height="2.36"/><rect class="cls-2" x="14.65" y="5.2" width="2.36" height="2.36"/><rect class="cls-2" x="19.37" y="5.2" width="2.36" height="2.36"/></svg>