<svg xmlns="http://www.w3.org/2000/svg" viewBox="0 0 34.02 34.02"><defs><style>.cls-1{fill:#fcfefe;}.cls-2{fill:none;stroke:#fff;stroke-linecap:round;stroke-miterlimit:10;stroke-width:3px;}.cls-3{fill:#fff;}</style></defs><path class="cls-1" d="M22.25,18.52a.82.82,0,0,0,.57.15h4.3a1.44,1.44,0,1,0,0-2.87h-.86L31,11.06a1.42,1.42,0,0,0-2-2l-4.73,4.74v-.86a1.44,1.44,0,1,0-2.87,0v4.3a.87.87,0,0,0,.14.57A1.67,1.67,0,0,0,22.25,18.52Z"/><path class="cls-1" d="M9.91,31.58a1.31,1.31,0,0,0,1-.43l4.74-4.74v.86a1.44,1.44,0,1,0,2.87,0V23a.82.82,0,0,0-.15-.57,1.7,1.7,0,0,0-.71-.72.85.85,0,0,0-.58-.15h-4.3a1.44,1.44,0,1,0,0,2.87h.86L8.91,29.14a1.38,1.38,0,0,0,0,2A1.31,1.31,0,0,0,9.91,31.58Z"/><line class="cls-2" x1="14.4" y1="14.51" x2="25.54" y2="25.65"/><path class="cls-3" d="M7.51,5.7a3.41,3.41,0,0,1,.74.45c.85.8,1.67,1.64,2.49,2.47a1.19,1.19,0,1,1-1.69,1.67Q7.77,9,6.53,7.77a1.13,1.13,0,0,1-.26-1.33A1.33,1.33,0,0,1,7.51,5.7Z"/><path class="cls-3" d="M19.85,10.84a5.11,5.11,0,0,1-.92-.75A.93.93,0,0,1,19,8.85c.94-1,1.89-1.95,2.88-2.87a1.07,1.07,0,0,1,1.51.09,1.09,1.09,0,0,1,.11,1.56c-.91,1-1.87,1.9-2.83,2.83A2.88,2.88,0,0,1,19.85,10.84Z"/><path class="cls-3" d="M7.26,23.44a5,5,0,0,1-.92-.73.92.92,0,0,1,.06-1.24Q7.81,20,9.31,18.56a1.08,1.08,0,0,1,1.51.14,1.1,1.1,0,0,1,.09,1.52C10,21.21,9,22.15,8,23.09A3.07,3.07,0,0,1,7.26,23.44Z"/><path class="cls-3" d="M16.16,5.64c0,.56,0,1.12,0,1.67A1.24,1.24,0,0,1,15,8.59a1.22,1.22,0,0,1-1.19-1.28c0-1.14,0-2.27,0-3.4A1.22,1.22,0,0,1,15,2.63a1.23,1.23,0,0,1,1.19,1.29C16.18,4.49,16.16,5.07,16.16,5.64Z"/><path class="cls-3" d="M6,15.73c-.54,0-1.08,0-1.62,0a1.2,1.2,0,1,1,0-2.4c1.11,0,2.22,0,3.34,0a1.2,1.2,0,1,1,0,2.4C7.14,15.75,6.57,15.73,6,15.73Z"/></svg>