<svg viewBox="0 0 22 22" xmlns="http://www.w3.org/2000/svg">
<g id="house-chimney (1) 1" clip-path="url(#clip0_2237_7370)">
<path id="Vector" d="M20.1667 5.24697V1.83331C20.1667 1.32731 19.7569 0.916641 19.25 0.916641C18.7431 0.916641 18.3333 1.32731 18.3333 1.83331V4.00214L13.5639 0.783725C12.0065 -0.266775 9.9935 -0.266775 8.43608 0.783725L2.01942 5.11406C0.755333 5.96747 0 7.38739 0 8.91364V17.4166C0 19.9439 2.05608 22 4.58333 22H7.33333C7.84025 22 8.25 21.5893 8.25 21.0833V13.75C8.25 13.2449 8.66067 12.8333 9.16667 12.8333H12.8333C13.3393 12.8333 13.75 13.2449 13.75 13.75V21.0833C13.75 21.5893 14.1597 22 14.6667 22H17.4167C19.9439 22 22 19.9439 22 17.4166V8.91364C22 7.46439 21.318 6.11047 20.1667 5.24697ZM20.1667 17.4166C20.1667 18.9328 18.9328 20.1666 17.4167 20.1666H15.5833V13.75C15.5833 12.2338 14.3495 11 12.8333 11H9.16667C7.6505 11 6.41667 12.2338 6.41667 13.75V20.1666H4.58333C3.06717 20.1666 1.83333 18.9328 1.83333 17.4166V8.91364C1.83333 7.99789 2.28617 7.14539 3.04517 6.63389L9.46183 2.30356C10.3968 1.67289 11.6032 1.67289 12.5373 2.30356L18.9539 6.63389C19.7129 7.14539 20.1658 7.99789 20.1658 8.91364L20.1667 17.4166Z"/>
</g>
<defs>
<clipPath id="clip0_2237_7370">
<rect width="22" height="22"/>
</clipPath>
</defs>
</svg>
