<svg viewBox="0 0 24 24" xmlns="http://www.w3.org/2000/svg">
<g id="keyboard-down 1">
<path id="Vector" d="M21.5 3H2.5C1.122 3 0 4.122 0 5.5V17H24V5.5C24 4.122 22.878 3 21.5 3ZM22 15H2V5.5C2 5.224 2.224 5 2.5 5H21.5C21.776 5 22 5.224 22 5.5V15ZM4 7H7V9H4V7ZM12 9H9V7H12V9ZM14 7H20V9H14V7ZM8 11H16V13H8V11ZM18 11H20V13H18V11ZM4 11H6V13H4V11ZM15.293 18.707L16.707 20.121L13.414 23.414C13.024 23.804 12.512 23.999 12 23.999C11.488 23.999 10.976 23.804 10.586 23.414L7.293 20.121L8.707 18.707L12 22L15.293 18.707Z"/>
</g>
</svg>
