<svg viewBox="0 0 27 27" fill="none" xmlns="http://www.w3.org/2000/svg">
<g clip-path="url(#clip0_1529_37846)">
<path d="M13.5 27C20.9558 27 27 20.9558 27 13.5C27 6.04416 20.9558 0 13.5 0C6.04416 0 0 6.04416 0 13.5C0 20.9558 6.04416 27 13.5 27Z" fill="#26A1F4"/>
<path d="M18.2012 12.5265L18.1938 12.5191L14.4729 8.79553C14.4729 8.79553 9.93775 13.3307 7.75244 15.5614C7.48033 15.8387 7.27414 16.2248 7.15179 16.5981C6.7932 17.6945 6.4963 18.813 6.16619 19.9204C6.07759 20.2173 6.09552 20.4788 6.32808 20.7003C6.54746 20.9113 6.79425 20.9186 7.07902 20.8332C8.13371 20.5168 9.19525 20.2157 10.2547 19.9125C10.7995 19.7546 11.2933 19.4565 11.6869 19.0481C13.7689 16.9535 18.2012 12.5265 18.2012 12.5265Z" fill="white"/>
<path d="M20.3733 7.90009L19.1008 6.62761C18.7745 6.30156 18.3321 6.11841 17.8708 6.11841C17.4095 6.11841 16.9671 6.30156 16.6408 6.62761L15.1985 8.06831L18.9316 11.8024L20.3738 10.3601C20.6998 10.0338 20.8829 9.5913 20.8828 9.13001C20.8827 8.66872 20.6994 8.22634 20.3733 7.90009Z" fill="white"/>
</g>
<defs>
<clipPath id="clip0_1529_37846">
<rect width="27" height="27" fill="white"/>
</clipPath>
</defs>
</svg>
