<svg viewBox="0 0 15 15" xmlns="http://www.w3.org/2000/svg">
<g id="layers 1" clip-path="url(#clip0_2867_5142)">
<path id="Vector" d="M0.569982 6.62502L6.37498 10.1056C6.71466 10.31 7.10358 10.4179 7.49998 10.4179C7.89638 10.4179 8.2853 10.31 8.62498 10.1056L14.43 6.62502C14.6023 6.52169 14.7449 6.37551 14.8439 6.2007C14.9429 6.02589 14.9949 5.82841 14.9949 5.62752C14.9949 5.42662 14.9429 5.22915 14.8439 5.05434C14.7449 4.87953 14.6023 4.73334 14.43 4.63002L8.62498 1.14439C8.28537 0.939863 7.89643 0.831787 7.49998 0.831787C7.10354 0.831787 6.71459 0.939863 6.37498 1.14439L0.569982 4.62502C0.397692 4.72834 0.255102 4.87453 0.156101 5.04934C0.0571007 5.22415 0.00506592 5.42162 0.00506592 5.62252C0.00506592 5.82341 0.0571007 6.02089 0.156101 6.1957C0.255102 6.37051 0.397692 6.51669 0.569982 6.62002V6.62502ZM7.33936 2.75002C7.38789 2.72094 7.44341 2.70558 7.49998 2.70558C7.55656 2.70558 7.61208 2.72094 7.66061 2.75002L12.4487 5.62502L7.66061 8.50002C7.61208 8.5291 7.55656 8.54446 7.49998 8.54446C7.44341 8.54446 7.38789 8.5291 7.33936 8.50002L2.55123 5.62502L7.33936 2.75002Z" />
<path id="Vector_2" d="M8.30375 11.7694C8.06095 11.9151 7.78313 11.992 7.5 11.992C7.21687 11.992 6.93905 11.9151 6.69625 11.7694L1.42 8.60379C1.27775 8.5184 1.11538 8.47229 0.94948 8.47017C0.78358 8.46805 0.620088 8.50999 0.475699 8.59172C0.331311 8.67345 0.211197 8.79203 0.127623 8.93536C0.0440495 9.07869 9.46066e-06 9.24163 0 9.40754C9.22935e-06 9.56939 0.0419205 9.72848 0.121655 9.86933C0.201389 10.0102 0.31623 10.128 0.455 10.2113L5.73125 13.375C6.26525 13.6964 6.87674 13.8663 7.5 13.8663C8.12326 13.8663 8.73475 13.6964 9.26875 13.375L14.545 10.2094C14.6835 10.1263 14.7982 10.0088 14.8779 9.86827C14.9576 9.72778 14.9997 9.56907 15 9.40754C15 9.24163 14.956 9.07869 14.8724 8.93536C14.7888 8.79203 14.6687 8.67345 14.5243 8.59172C14.3799 8.50999 14.2164 8.46805 14.0505 8.47017C13.8846 8.47229 13.7223 8.5184 13.58 8.60379L8.30375 11.7694Z" />
</g>
<defs>
<clipPath id="clip0_2867_5142">
<rect width="15" height="15" fill="white"/>
</clipPath>
</defs>
</svg>
