<svg viewBox="0 0 33 33" xmlns="http://www.w3.org/2000/svg">
<g clip-path="url(#clip0_2112_10636)">
<path d="M15.2785 33C12.3999 33 9.63206 33 6.75348 33C4.98206 33 4.31777 32.3357 4.64991 30.5643C5.09277 28.5714 5.53563 26.5786 5.86777 24.5857C5.97848 23.9214 6.31063 23.7 6.97491 23.7C12.5106 23.7 18.1571 23.7 23.6928 23.7C24.3571 23.7 24.6892 24.0322 24.7999 24.5857C25.2428 26.5786 25.6856 28.5714 26.0178 30.5643C26.3499 32.3357 25.7963 33 23.9142 33C21.1463 33 18.1571 33 15.2785 33Z"/>
<path d="M15.3895 20.6C12.7323 20.6 9.96448 20.6 7.30734 20.6C6.31091 20.6 6.2002 20.4893 6.2002 19.3821C6.2002 18.8286 6.2002 18.275 6.2002 17.7214C6.2002 16.5036 6.75377 15.95 8.08234 15.95C9.18948 15.95 10.4073 15.95 11.5145 15.95C12.1788 15.95 12.5109 15.7286 12.4002 15.0643C12.4002 11.8536 12.4002 8.64285 12.4002 5.43213C12.4002 3.77142 13.2859 2.44285 14.7252 2.1107C16.7181 1.55713 18.4895 3.10713 18.4895 5.32142C18.4895 8.42142 18.4895 11.5214 18.4895 14.6214C18.4895 16.0607 18.4895 15.95 19.8181 15.95C20.9252 15.95 21.9216 15.95 23.0288 15.95C24.1359 15.95 24.6895 16.5036 24.6895 17.6107C24.6895 18.275 24.6895 18.9393 24.6895 19.6036C24.6895 20.3786 24.3573 20.6 23.6931 20.6C21.2573 20.6 18.9323 20.6 16.4966 20.6C16.1645 20.6 15.7216 20.6 15.3895 20.6Z"/>
</g>
<path d="M26.928 11.296H23.436L22.836 13H21.408L24.396 4.648H25.98L28.968 13H27.528L26.928 11.296ZM26.544 10.18L25.188 6.304L23.82 10.18H26.544ZM31.6352 4.66V13H30.2672V4.66H31.6352Z"/>
<defs>
<clipPath id="clip0_2112_10636">
<rect width="31" height="31" transform="translate(0 2)"/>
</clipPath>
</defs>
</svg>
