<?xml version="1.0" standalone="no"?><!DOCTYPE svg PUBLIC "-//W3C//DTD SVG 1.1//EN" "http://www.w3.org/Graphics/SVG/1.1/DTD/svg11.dtd"><svg t="1691984287689" class="icon" viewBox="0 0 1024 1024" version="1.1" xmlns="http://www.w3.org/2000/svg" p-id="3869" xmlns:xlink="http://www.w3.org/1999/xlink" width="16" height="16"><path d="M512 102.38976c-226.2016 0-409.6 183.36768-409.6 409.6s183.3984 409.63072 409.6 409.63072a408.55552 408.55552 0 0 0 156.672-31.20128 68.33152 68.33152 0 0 0 22.15936-111.40096l-48.05632-48.05632a68.28032 68.28032 0 0 1 48.26112-116.54144l162.304-0.04096a68.25984 68.25984 0 0 0 68.27008-68.25984v-34.12992C921.6 285.7472 738.23232 102.38976 512 102.38976z m341.32992 443.72992l-162.304 0.03072c-75.30496 0-136.52992 61.22496-136.52992 136.52992 0 36.48512 14.20288 70.73792 39.99744 96.54272l48.06656 48.05632a338.16576 338.16576 0 0 1-130.57024 26.08128c-188.20096 0-341.32992-153.1392-341.32992-341.37088S323.79904 170.6496 512 170.6496s341.32992 153.09824 341.32992 341.32992v34.14016z" p-id="3870" fill="#ffffff"></path><path d="M512 307.18976m-68.27008 0a68.27008 68.27008 0 1 0 136.54016 0 68.27008 68.27008 0 1 0-136.54016 0Z" p-id="3871" fill="#ffffff"></path><path d="M300.50304 555.25376a68.1984 68.1984 0 0 1 93.22496 24.99584 68.3008 68.3008 0 0 1-24.9344 93.26592 68.352 68.352 0 0 1-93.29664-24.99584 68.32128 68.32128 0 0 1 25.00608-93.26592z" p-id="3872" fill="#ffffff"></path><path d="M689.34656 409.58976m-68.29056 0a68.29056 68.29056 0 1 0 136.58112 0 68.29056 68.29056 0 1 0-136.58112 0Z" p-id="3873" fill="#ffffff"></path><path d="M300.50304 468.71552a68.25984 68.25984 0 0 1-24.96512-93.26592 68.2496 68.2496 0 1 1 118.20032 68.23936 68.27008 68.27008 0 0 1-93.2352 25.02656z" p-id="3874" fill="#ffffff"></path></svg>