<svg viewBox="0 0 27 27" fill="none" xmlns="http://www.w3.org/2000/svg">
<g id="play-circle 1" clip-path="url(#clip0_2679_23139)">
<path id="Vector" d="M13.5 0C6.05587 0 0 6.05587 0 13.5C0 20.9441 6.05587 27 13.5 27C20.9441 27 27 20.9441 27 13.5C27 6.05587 20.9441 0 13.5 0ZM13.5 23.625C7.91663 23.625 3.375 19.0823 3.375 13.5C3.375 7.91775 7.91663 3.375 13.5 3.375C19.0834 3.375 23.625 7.91775 23.625 13.5C23.625 19.0823 19.0834 23.625 13.5 23.625ZM17.9032 14.6261L12.051 17.8324C11.1892 18.3172 10.125 17.694 10.125 16.7063V10.2949C10.125 9.306 11.1892 8.68387 12.051 9.16875L17.9032 12.375C18.7819 12.8689 18.7819 14.1323 17.9032 14.6261Z" fill="white"/>
</g>
<defs>
<clipPath id="clip0_2679_23139">
<rect width="27" height="27" fill="white"/>
</clipPath>
</defs>
</svg>
