<svg viewBox="0 0 25 25" fill="none" xmlns="http://www.w3.org/2000/svg">
<g id="angle-double-small-right 1">
<path id="Vector" d="M13.6462 20.3126C13.3371 20.3128 13.0348 20.2212 12.7778 20.0495C12.5207 19.8778 12.3203 19.6338 12.202 19.3482C12.0837 19.0626 12.0527 18.7483 12.1131 18.4451C12.1734 18.1419 12.3223 17.8634 12.541 17.6449L17.3181 12.8689C17.3666 12.8205 17.4051 12.763 17.4313 12.6997C17.4576 12.6365 17.4711 12.5686 17.4711 12.5001C17.4711 12.4316 17.4576 12.3638 17.4313 12.3005C17.4051 12.2372 17.3666 12.1798 17.3181 12.1314L12.5452 7.35534C12.2521 7.06236 12.0873 6.66494 12.0872 6.2505C12.0871 5.83606 12.2517 5.43856 12.5447 5.14544C12.8376 4.85233 13.2351 4.6876 13.6495 4.6875C14.0639 4.6874 14.4614 4.85194 14.7545 5.14492L19.5316 9.92201C20.2142 10.6064 20.5975 11.5336 20.5975 12.5001C20.5975 13.4667 20.2142 14.3938 19.5316 15.0783L14.7545 19.8553C14.609 20.0008 14.4362 20.116 14.246 20.1945C14.0558 20.273 13.852 20.3131 13.6462 20.3126Z" fill="white"/>
<path id="Vector_2" d="M6.35422 20.3126C6.04509 20.3128 5.74286 20.2212 5.48578 20.0495C5.22869 19.8778 5.02831 19.6338 4.90999 19.3482C4.79167 19.0626 4.76073 18.7483 4.82108 18.4451C4.88143 18.1419 5.03035 17.8634 5.24902 17.6449L10.398 12.5001L5.25318 7.35534C4.96006 7.06236 4.79534 6.66494 4.79524 6.2505C4.79514 5.83606 4.95968 5.43856 5.25266 5.14544C5.54564 4.85233 5.94307 4.6876 6.3575 4.6875C6.77194 4.6874 7.16944 4.85194 7.46256 5.14492L13.7126 11.3949C13.8578 11.54 13.9729 11.7123 14.0515 11.902C14.1301 12.0916 14.1706 12.2949 14.1706 12.5001C14.1706 12.7054 14.1301 12.9087 14.0515 13.0983C13.9729 13.2879 13.8578 13.4602 13.7126 13.6053L7.46256 19.8553C7.31702 20.0008 7.1442 20.116 6.954 20.1945C6.7638 20.273 6.55998 20.3131 6.35422 20.3126Z" fill="white"/>
</g>
</svg>
