<svg viewBox="0 0 25 25" fill="none" xmlns="http://www.w3.org/2000/svg">
<g id="angle-double-small-left 1">
<path id="Vector" d="M10.9187 20.3126C10.5046 20.3125 10.1075 20.1481 9.81458 19.8553L5.0375 15.0783C4.35497 14.3938 3.97168 13.4667 3.97168 12.5001C3.97168 11.5336 4.35497 10.6064 5.0375 9.92201L9.81458 5.14492C10.1077 4.85194 10.5052 4.6874 10.9196 4.6875C11.3341 4.6876 11.7315 4.85233 12.0245 5.14544C12.3175 5.43856 12.482 5.83606 12.4819 6.2505C12.4818 6.66494 12.3171 7.06236 12.024 7.35534L7.24687 12.1314C7.19837 12.1798 7.15989 12.2372 7.13363 12.3005C7.10737 12.3638 7.09386 12.4316 7.09386 12.5001C7.09386 12.5686 7.10737 12.6365 7.13363 12.6998C7.15989 12.763 7.19837 12.8205 7.24687 12.8689L12.024 17.6449C12.2426 17.8634 12.3915 18.1419 12.4519 18.4451C12.5122 18.7483 12.4813 19.0626 12.363 19.3482C12.2447 19.6338 12.0443 19.8779 11.7872 20.0495C11.5301 20.2212 11.2279 20.3128 10.9187 20.3126Z" fill="white"/>
<path id="Vector_2" d="M18.2106 20.3126C17.7965 20.3125 17.3994 20.1481 17.1064 19.8553L10.8564 13.6053C10.7112 13.4602 10.5961 13.2879 10.5175 13.0983C10.4389 12.9087 10.3984 12.7054 10.3984 12.5001C10.3984 12.2949 10.4389 12.0916 10.5175 11.902C10.5961 11.7123 10.7112 11.54 10.8564 11.3949L17.1064 5.14492C17.2516 4.99985 17.4239 4.88479 17.6135 4.80631C17.8031 4.72782 18.0063 4.68745 18.2115 4.6875C18.4167 4.68755 18.6199 4.72801 18.8095 4.80659C18.999 4.88516 19.1713 5.00031 19.3163 5.14544C19.4614 5.29058 19.5765 5.46287 19.655 5.65248C19.7334 5.84208 19.7738 6.04529 19.7738 6.2505C19.7737 6.45571 19.7332 6.6589 19.6547 6.84847C19.5761 7.03803 19.461 7.21027 19.3158 7.35534L14.1669 12.5001L19.3116 17.6449C19.5301 17.8632 19.6789 18.1413 19.7394 18.4441C19.7999 18.7469 19.7693 19.0608 19.6515 19.3462C19.5337 19.6317 19.3339 19.8758 19.0775 20.0478C18.821 20.2198 18.5194 20.312 18.2106 20.3126Z" fill="white"/>
</g>
</svg>
