<svg viewBox="0 0 27 27" fill="none" xmlns="http://www.w3.org/2000/svg">
<g id="stop-circle 1" clip-path="url(#clip0_2679_23147)">
<path id="Vector" d="M13.5 0C6.05587 0 0 6.05587 0 13.5C0 20.9441 6.05587 27 13.5 27C20.9441 27 27 20.9441 27 13.5C27 6.05587 20.9441 0 13.5 0ZM13.5 23.625C7.91775 23.625 3.375 19.0823 3.375 13.5C3.375 7.91775 7.91775 3.375 13.5 3.375C19.0823 3.375 23.625 7.91775 23.625 13.5C23.625 19.0823 19.0823 23.625 13.5 23.625ZM18 11.25V15.75C18 16.9931 16.9931 18 15.75 18H11.25C10.0069 18 9 16.9931 9 15.75V11.25C9 10.0069 10.0069 9 11.25 9H15.75C16.9931 9 18 10.0069 18 11.25Z" fill="white"/>
</g>
<defs>
<clipPath id="clip0_2679_23147">
<rect width="27" height="27" fill="white"/>
</clipPath>
</defs>
</svg>
