<svg width="34" height="34" viewBox="1 1 30 30" fill="none" xmlns="http://www.w3.org/2000/svg">
<path d="M30.4621 26.0002C30.4901 26.6043 30.3949 27.2078 30.1824 27.7742C29.9698 28.3406 29.6444 28.8582 29.2256 29.2956C28.8068 29.733 28.3035 30.0811 27.746 30.319C27.1885 30.5569 26.5884 30.6795 25.982 30.6795C25.3757 30.6795 24.7756 30.5569 24.2181 30.319C23.6606 30.0811 23.1573 29.733 22.7385 29.2956C22.3197 28.8582 21.9942 28.3406 21.7817 27.7742C21.5692 27.2078 21.474 26.6043 21.502 26.0002C21.4905 24.2465 20.8431 22.5563 19.6794 21.2416C19.6339 21.1708 19.5748 21.1096 19.5054 21.0616C19.4361 21.0136 19.3579 20.9798 19.2754 20.9621C19.1929 20.9444 19.1078 20.9432 19.0248 20.9585C18.9418 20.9738 18.8627 21.0053 18.792 21.0513C18.2367 21.3234 17.6263 21.465 17.0076 21.465C16.3889 21.465 15.7785 21.3234 15.2232 21.0513C15.0621 20.9611 14.8719 20.9375 14.6935 20.9855C14.5151 21.0335 14.3627 21.1494 14.269 21.3083C13.1239 22.6019 12.4867 24.265 12.475 25.9907C12.4954 26.8217 12.276 27.6411 11.8429 28.3514C11.4099 29.0617 10.7814 29.633 10.0322 29.9974C9.34268 30.3754 8.56207 30.5567 7.776 30.5215C6.98994 30.4862 6.22879 30.2357 5.57603 29.7975C4.75754 29.2764 4.13028 28.5049 3.78817 27.5985C3.44605 26.6921 3.40748 25.6995 3.67822 24.7694C3.94896 23.8393 4.51445 23.0217 5.29005 22.4389C6.06564 21.8562 7.00962 21.5396 7.98067 21.5367C9.73991 21.5304 11.4364 20.8841 12.7518 19.7189C12.8239 19.6734 12.8864 19.6141 12.9355 19.5445C12.9846 19.4748 13.0195 19.3962 13.0381 19.3131C13.0568 19.23 13.0587 19.144 13.044 19.0601C13.0292 18.9763 12.998 18.8961 12.9522 18.8243C12.5735 18.0019 12.4567 17.0834 12.6176 16.1927C12.7785 15.302 13.2093 14.482 13.852 13.8431C14.4946 13.2042 15.3183 12.7771 16.2118 12.6195C17.1054 12.462 18.0259 12.5814 18.8492 12.9618C18.916 13.0057 18.9909 13.0359 19.0696 13.0506C19.1482 13.0653 19.229 13.0642 19.3072 13.0474C19.3854 13.0306 19.4595 12.9983 19.525 12.9526C19.5906 12.9068 19.6463 12.8485 19.689 12.7809C20.8581 11.4681 21.5121 9.77817 21.5306 8.02239C21.5235 7.37925 21.6555 6.74213 21.9177 6.1545C22.1799 5.56687 22.566 5.04254 23.0498 4.61727C23.5337 4.19201 24.1037 3.8758 24.7212 3.69023C25.3386 3.50465 25.989 3.45407 26.6278 3.54193C27.2666 3.62979 27.879 3.85403 28.423 4.19934C28.9671 4.54466 29.4301 5.00294 29.7804 5.54293C30.1308 6.08292 30.3602 6.69192 30.4532 7.32839C30.5461 7.96486 30.5003 8.61384 30.319 9.23106C30.0709 10.185 29.5113 11.0294 28.7285 11.6308C27.9458 12.2323 26.9845 12.5566 25.9964 12.5525C24.2685 12.5674 22.6031 13.1987 21.3016 14.3322C20.9772 14.6082 20.8436 14.8271 21.0535 15.2839C21.3335 15.8475 21.4792 16.468 21.4792 17.0969C21.4792 17.7259 21.3335 18.3464 21.0535 18.9099C20.967 19.0452 20.9376 19.2091 20.9715 19.3659C21.0055 19.5227 21.1001 19.6598 21.2348 19.7475C22.5195 20.9045 24.1798 21.5601 25.9105 21.5938C26.5001 21.5824 27.0862 21.6877 27.6348 21.9035C28.1835 22.1192 28.6838 22.4413 29.107 22.8509C29.5302 23.2606 29.8678 23.7498 30.1004 24.2904C30.333 24.8309 30.4559 25.412 30.4621 26.0002ZM14.7365 16.997C14.7328 17.4416 14.8614 17.8773 15.1061 18.249C15.3508 18.6206 15.7006 18.9115 16.1112 19.0847C16.5218 19.2579 16.9747 19.3056 17.4125 19.2219C17.8503 19.1381 18.2534 18.9267 18.5706 18.6143C18.8879 18.3019 19.105 17.9026 19.1945 17.4671C19.284 17.0315 19.2419 16.5792 19.0735 16.1676C18.9051 15.7559 18.618 15.4033 18.2485 15.1545C17.879 14.9057 17.4438 14.7719 16.9981 14.77C16.7024 14.7662 16.409 14.821 16.1348 14.9313C15.8606 15.0415 15.611 15.2049 15.4006 15.4121C15.1902 15.6193 15.0232 15.8661 14.9092 16.1381C14.7952 16.4102 14.7365 16.7021 14.7365 16.997ZM25.9677 28.2653C26.2657 28.2716 26.562 28.2184 26.8391 28.1087C27.1162 27.9991 27.3684 27.8352 27.581 27.6267C27.7935 27.4183 27.9621 27.1695 28.0767 26.895C28.1913 26.6206 28.2497 26.326 28.2483 26.0287C28.2521 25.7317 28.197 25.4369 28.0863 25.1612C27.9755 24.8855 27.8112 24.6343 27.6029 24.4221C27.3945 24.2098 27.1462 24.0407 26.8721 23.9245C26.5981 23.8082 26.3037 23.7471 26.0059 23.7446C25.4058 23.747 24.8304 23.9832 24.4026 24.4028C23.9747 24.8225 23.7282 25.3923 23.7158 25.9907C23.7132 26.5898 23.9488 27.1655 24.3708 27.5918C24.7929 28.0181 25.3671 28.2602 25.9677 28.2653ZM25.9677 5.75732C25.6699 5.75732 25.3751 5.81598 25.1001 5.92992C24.8251 6.04387 24.5753 6.21086 24.3652 6.42132C24.1551 6.63178 23.9887 6.88155 23.8756 7.15631C23.7625 7.43106 23.705 7.72539 23.7062 8.02239C23.7186 8.62255 23.9644 9.19441 24.3918 9.6171C24.8191 10.0398 25.3945 10.2802 25.9964 10.2875C26.5979 10.2774 27.1711 10.0308 27.5911 9.60117C28.0111 9.17157 28.2439 8.59385 28.2388 7.99384C28.2375 7.69933 28.178 7.40797 28.0635 7.13647C27.9491 6.86498 27.782 6.6187 27.5719 6.41178C27.3617 6.20486 27.1127 6.04137 26.8391 5.93069C26.5654 5.82001 26.2725 5.76433 25.9773 5.76684L25.9677 5.75732ZM7.90433 28.2653C8.20215 28.278 8.49956 28.2319 8.77945 28.1296C9.05934 28.0273 9.3162 27.8708 9.53524 27.6692C9.75428 27.4675 9.93118 27.2246 10.0558 26.9546C10.1804 26.6845 10.2502 26.3925 10.2613 26.0954C10.272 25.4963 10.0492 24.9165 9.63984 24.478C9.23045 24.0395 8.66642 23.7766 8.06655 23.7446C7.46576 23.7267 6.88233 23.947 6.44412 24.3573C6.0059 24.7676 5.74864 25.3344 5.72871 25.9336C5.71594 26.2297 5.7623 26.5253 5.86509 26.8034C5.96789 27.0814 6.12507 27.3364 6.3275 27.5533C6.52993 27.7703 6.77357 27.9449 7.04426 28.0671C7.31496 28.1894 7.60731 28.2567 7.90433 28.2653Z" fill="white"/>
<path d="M8.64845 11.3819C10.514 11.3819 12.0264 9.87355 12.0264 8.01287C12.0264 6.1522 10.514 4.64382 8.64845 4.64382C6.78286 4.64382 5.27051 6.1522 5.27051 8.01287C5.27051 9.87355 6.78286 11.3819 8.64845 11.3819Z" stroke="white" stroke-width="2" stroke-miterlimit="10"/>
</svg>
