<svg width="27" height="27" viewBox="0 0 26 26" fill="none" xmlns="http://www.w3.org/2000/svg">
<g clip-path="url(#clip0_227_323)">
<path d="M26.9907 22.4794C27.0187 23.0835 26.9234 23.687 26.7106 24.2534C26.4978 24.8198 26.1719 25.3374 25.7526 25.7748C25.3334 26.2122 24.8294 26.5603 24.2712 26.7982C23.713 27.036 23.1122 27.1587 22.505 27.1587C21.8979 27.1587 21.2971 27.036 20.7389 26.7982C20.1807 26.5603 19.6767 26.2122 19.2574 25.7748C18.8381 25.3374 18.5122 24.8198 18.2994 24.2534C18.0866 23.687 17.9914 23.0835 18.0194 22.4794C18.0079 20.7257 17.3597 19.0355 16.1945 17.7208C16.149 17.65 16.0898 17.5888 16.0203 17.5408C15.9509 17.4928 15.8727 17.459 15.7901 17.4413C15.7074 17.4236 15.6221 17.4224 15.5391 17.4377C15.456 17.453 15.3768 17.4845 15.306 17.5305C14.75 17.8026 14.1388 17.9441 13.5194 17.9441C12.8999 17.9441 12.2887 17.8026 11.7327 17.5305C11.5714 17.4403 11.381 17.4167 11.2024 17.4647C11.0238 17.5127 10.8712 17.6286 10.7773 17.7875C9.63077 19.0811 8.99278 20.7442 8.98114 22.4699C9.00152 23.3009 8.78185 24.1203 8.34826 24.8306C7.91466 25.5409 7.28539 26.1122 6.53529 26.4766C5.84487 26.8546 5.06327 27.0359 4.27622 27.0007C3.48918 26.9654 2.72707 26.7149 2.0735 26.2767C1.25398 25.7556 0.625945 24.9841 0.283402 24.0776C-0.0591411 23.1712 -0.0977636 22.1787 0.173316 21.2486C0.444395 20.3185 1.01059 19.5009 1.78716 18.9181C2.56372 18.3354 3.50888 18.0188 4.48115 18.0159C6.24259 18.0096 7.94121 17.3633 9.25821 16.1981C9.33046 16.1526 9.39298 16.0933 9.44218 16.0237C9.49139 15.954 9.52631 15.8754 9.54495 15.7923C9.56359 15.7092 9.56558 15.6232 9.5508 15.5393C9.53603 15.4555 9.50478 15.3753 9.45885 15.3035C9.07968 14.4811 8.96277 13.5626 9.12386 12.6719C9.28495 11.7812 9.71631 10.9612 10.3598 10.3223C11.0033 9.68335 11.8279 9.25632 12.7226 9.09874C13.6172 8.94116 14.5389 9.0606 15.3633 9.44096C15.4302 9.48491 15.5052 9.51512 15.5839 9.52982C15.6627 9.54453 15.7435 9.54343 15.8218 9.52659C15.9002 9.50974 15.9743 9.4775 16.0399 9.43175C16.1056 9.38599 16.1614 9.32765 16.2041 9.26013C17.3747 7.94734 18.0295 6.25737 18.048 4.50159C18.0409 3.85844 18.1731 3.22133 18.4356 2.63369C18.6981 2.04606 19.0848 1.52173 19.5692 1.09647C20.0536 0.6712 20.6244 0.354997 21.2426 0.169422C21.8608 -0.016153 22.512 -0.0667354 23.1516 0.0211245C23.7912 0.108984 24.4043 0.33322 24.9491 0.678539C25.4938 1.02386 25.9574 1.48214 26.3082 2.02213C26.659 2.56212 26.8887 3.17111 26.9818 3.80759C27.0748 4.44406 27.029 5.09303 26.8474 5.71026C26.599 6.66421 26.0387 7.50857 25.255 8.11004C24.4712 8.7115 23.5087 9.0358 22.5194 9.03172C20.7894 9.04662 19.1219 9.67794 17.8187 10.8114C17.4939 11.0874 17.3601 11.3063 17.5703 11.7631C17.8507 12.3267 17.9966 12.9472 17.9966 13.5761C17.9966 14.2051 17.8507 14.8256 17.5703 15.3891C17.4838 15.5244 17.4543 15.6883 17.4883 15.8451C17.5222 16.0019 17.617 16.139 17.7518 16.2266C19.0382 17.3837 20.7005 18.0393 22.4334 18.073C23.0238 18.0616 23.6105 18.1669 24.1599 18.3827C24.7092 18.5984 25.2102 18.9204 25.6339 19.3301C26.0576 19.7398 26.3957 20.229 26.6285 20.7696C26.8614 21.3101 26.9845 21.8912 26.9907 22.4794ZM11.2455 13.4762C11.2417 13.9208 11.3705 14.3565 11.6155 14.7282C11.8605 15.0998 12.2108 15.3907 12.6219 15.5639C13.033 15.737 13.4864 15.7848 13.9248 15.7011C14.3632 15.6173 14.7667 15.4059 15.0844 15.0935C15.402 14.7811 15.6194 14.3818 15.709 13.9463C15.7987 13.5107 15.7565 13.0584 15.5879 12.6468C15.4193 12.2351 15.1318 11.8825 14.7618 11.6337C14.3919 11.3849 13.9562 11.2511 13.5098 11.2492C13.2138 11.2454 12.92 11.3002 12.6454 11.4105C12.3709 11.5207 12.121 11.6841 11.9104 11.8913C11.6997 12.0985 11.5325 12.3453 11.4184 12.6173C11.3042 12.8894 11.2455 13.1813 11.2455 13.4762ZM22.4907 24.7444C22.7891 24.7508 23.0857 24.6976 23.3632 24.5879C23.6406 24.4782 23.8931 24.3144 24.106 24.1059C24.3188 23.8975 24.4875 23.6487 24.6023 23.3742C24.7171 23.0998 24.7755 22.8052 24.7741 22.5079C24.7779 22.2109 24.7228 21.9161 24.6119 21.6404C24.501 21.3647 24.3365 21.1135 24.1279 20.9013C23.9193 20.689 23.6706 20.5199 23.3962 20.4037C23.1218 20.2874 22.8271 20.2263 22.5289 20.2238C21.9281 20.2262 21.352 20.4624 20.9236 20.882C20.4952 21.3017 20.2484 21.8715 20.2359 22.4699C20.2334 23.069 20.4692 23.6447 20.8918 24.071C21.3144 24.4973 21.8893 24.7394 22.4907 24.7444ZM22.4907 2.23652C22.1925 2.23652 21.8973 2.29517 21.622 2.40912C21.3466 2.52306 21.0966 2.69006 20.8862 2.90052C20.6758 3.11097 20.5092 3.36075 20.396 3.6355C20.2828 3.91026 20.2251 4.20458 20.2264 4.50159C20.2387 5.10175 20.4849 5.67361 20.9128 6.09629C21.3407 6.51898 21.9168 6.75937 22.5194 6.76666C23.1216 6.75664 23.6956 6.50996 24.1161 6.08036C24.5366 5.65076 24.7697 5.07304 24.7646 4.47304C24.7633 4.17853 24.7037 3.88716 24.5891 3.61567C24.4745 3.34417 24.3072 3.0979 24.0968 2.89097C23.8865 2.68405 23.6371 2.52056 23.3631 2.40988C23.0891 2.29921 22.7959 2.24353 22.5003 2.24604L22.4907 2.23652ZM4.40471 24.7444C4.7029 24.7572 5.00069 24.7111 5.28093 24.6088C5.56117 24.5065 5.81834 24.35 6.03766 24.1484C6.25697 23.9467 6.4341 23.7038 6.55885 23.4337C6.68361 23.1637 6.75352 22.8717 6.76458 22.5745C6.77534 21.9755 6.55228 21.3957 6.14239 20.9572C5.73249 20.5187 5.16776 20.2558 4.56713 20.2238C3.96559 20.2059 3.38144 20.4262 2.94267 20.8365C2.50391 21.2468 2.24633 21.8136 2.22637 22.4128C2.21358 22.7088 2.26 23.0045 2.36293 23.2826C2.46585 23.5606 2.62322 23.8155 2.82591 24.0325C3.02859 24.2494 3.27254 24.4241 3.54357 24.5463C3.8146 24.6686 4.10732 24.7359 4.40471 24.7444Z" fill="white"/>
<path d="M5.14974 7.86112C7.01766 7.86112 8.53191 6.35275 8.53191 4.49207C8.53191 2.6314 7.01766 1.12302 5.14974 1.12302C3.28183 1.12302 1.76758 2.6314 1.76758 4.49207C1.76758 6.35275 3.28183 7.86112 5.14974 7.86112Z" stroke="white" stroke-width="2" stroke-miterlimit="10"/>
</g>
<defs>
<clipPath id="clip0_227_323">
<rect width="27" height="27" fill="white"/>
</clipPath>
</defs>
</svg>
