<svg viewBox="0 0 35 31" xmlns="http://www.w3.org/2000/svg">
<g clip-path="url(#clip0_2405_12381)">
<path d="M27.125 23.25C26.5915 23.25 26.0826 23.3585 25.6202 23.5535L20.1758 17.3832C20.4871 16.8253 20.6667 16.1833 20.6667 15.5C20.6667 14.8102 20.4845 14.1631 20.1681 13.6012L25.5711 7.42321C26.0478 7.63246 26.5735 7.75 27.125 7.75C29.2614 7.75 31 6.01142 31 3.875C31 1.73858 29.2614 0 27.125 0C25.4407 0 24.0056 1.07983 23.4722 2.58333H7.52783C6.99437 1.07983 5.55933 0 3.875 0C1.73858 0 0 1.73858 0 3.875C0 5.55933 1.07983 6.99437 2.58333 7.52783V23.4722C1.07983 24.0056 0 25.4407 0 27.125C0 29.2614 1.73858 31 3.875 31C5.55933 31 6.99437 29.9202 7.52783 28.4167H23.4722C24.0056 29.9202 25.4407 31 27.125 31C29.2614 31 31 29.2614 31 27.125C31 24.9886 29.2614 23.25 27.125 23.25ZM7.52783 5.16667H23.4722C23.5316 5.33458 23.6039 5.49862 23.6853 5.65492L18.2241 11.9001C17.7811 11.7232 17.298 11.625 16.7917 11.625C14.6552 11.625 12.9167 13.3636 12.9167 15.5C12.9167 17.6364 14.6552 19.375 16.7917 19.375C17.3032 19.375 17.7914 19.2742 18.2396 19.0934L23.7111 25.2947C23.6181 25.4665 23.5393 25.6473 23.4722 25.8333H7.52783C7.13775 24.7341 6.26587 23.8623 5.16667 23.4722V7.52783C6.26587 7.13775 7.13775 6.26587 7.52783 5.16667Z"/>
</g>
<path d="M28.928 17.296H25.436L24.836 19H23.408L26.396 10.648H27.98L30.968 19H29.528L28.928 17.296ZM28.544 16.18L27.188 12.304L25.82 16.18H28.544ZM33.6352 10.66V19H32.2672V10.66H33.6352Z"/>
<defs>
<clipPath id="clip0_2405_12381">
<rect width="31" height="31"/>
</clipPath>
</defs>
</svg>
