<svg viewBox="0 0 29 29" xmlns="http://www.w3.org/2000/svg">
<path d="M27.32 6.06934C27.5852 6.06934 27.8396 5.96398 28.0271 5.77643C28.2146 5.58888 28.32 5.33452 28.32 5.06929V1.00908C28.32 0.743854 28.2146 0.489487 28.0271 0.301941C27.8396 0.114396 27.5852 0.0090332 27.32 0.0090332H23.27C23.0048 0.0090332 22.7504 0.114396 22.5629 0.301941C22.3754 0.489487 22.27 0.743854 22.27 1.00908V2.00913H6.06V1.00908C6.06 0.743854 5.95464 0.489487 5.76711 0.301941C5.57957 0.114396 5.32522 0.0090332 5.06 0.0090332H1C0.734784 0.0090332 0.48043 0.114396 0.292893 0.301941C0.105357 0.489487 0 0.743854 0 1.00908V5.05929C0 5.32452 0.105357 5.57888 0.292893 5.76643C0.48043 5.95398 0.734784 6.05934 1 6.05934H2V22.2602H1C0.734784 22.2602 0.48043 22.3655 0.292893 22.5531C0.105357 22.7406 0 22.995 0 23.2602V27.3104C0 27.5756 0.105357 27.83 0.292893 28.0175C0.48043 28.2051 0.734784 28.3105 1 28.3105H5.05C5.31522 28.3105 5.56957 28.2051 5.75711 28.0175C5.94464 27.83 6.05 27.5756 6.05 27.3104V26.3104H22.25V27.3104C22.25 27.5756 22.3554 27.83 22.5429 28.0175C22.7304 28.2051 22.9848 28.3105 23.25 28.3105H27.3C27.5652 28.3105 27.8196 28.2051 28.0071 28.0175C28.1946 27.83 28.3 27.5756 28.3 27.3104V23.2802C28.3 23.015 28.1946 22.7606 28.0071 22.5731C27.8196 22.3855 27.5652 22.2802 27.3 22.2802H26.3V6.06934H27.32ZM24.32 22.2702H23.32C23.0548 22.2702 22.8004 22.3755 22.6129 22.5631C22.4254 22.7506 22.32 23.005 22.32 23.2702V24.2703H6.06V23.2702C6.06 23.005 5.95464 22.7506 5.76711 22.5631C5.57957 22.3755 5.32522 22.2702 5.06 22.2702H4.06V6.06934H5.06C5.32522 6.06934 5.57957 5.96398 5.76711 5.77643C5.95464 5.58888 6.06 5.33452 6.06 5.06929V4.06924H22.26V5.06929C22.26 5.33452 22.3654 5.58888 22.5529 5.77643C22.7404 5.96398 22.9948 6.06934 23.26 6.06934H24.26L24.32 22.2702Z"/>
<path d="M13.928 17.3053H10.436L9.836 19.0093H8.408L11.396 10.6573H12.98L15.968 19.0093H14.528L13.928 17.3053ZM13.544 16.1893L12.188 12.3133L10.82 16.1893H13.544ZM18.6352 10.6693V19.0093H17.2672V10.6693H18.6352Z"/>
</svg>
