<svg xmlns="http://www.w3.org/2000/svg" viewBox="0 0 34.02 34.02">
  <path class="cls-1"
    d="M30.17,8.91a1,1,0,0,0,1-1V3.85a1,1,0,0,0-1-1H26.12a1,1,0,0,0-1,1v1H8.91v-1a1,1,0,0,0-1-1H3.85a1,1,0,0,0-1,1V7.9a1,1,0,0,0,1,1h1v16.2h-1a1,1,0,0,0-1,1v4.05a1,1,0,0,0,1,1H7.9a1,1,0,0,0,1-1v-1h16.2v1a1,1,0,0,0,1,1h4.05a1,1,0,0,0,1-1V26.12a1,1,0,0,0-1-1h-1V8.91Zm-3,16.2h-1a1,1,0,0,0-1,1v1H8.91v-1a1,1,0,0,0-1-1h-1V8.91h1a1,1,0,0,0,1-1v-1h16.2v1a1,1,0,0,0,1,1h1Z" />
  <rect class="cls-2" x="2.83" y="2.83" width="28.35" height="28.35" fill="none" />
</svg>