<?xml version="1.0" standalone="no"?><!DOCTYPE svg PUBLIC "-//W3C//DTD SVG 1.1//EN" "http://www.w3.org/Graphics/SVG/1.1/DTD/svg11.dtd"><svg t="1692324462472" class="icon" viewBox="0 0 1024 1024" version="1.1" xmlns="http://www.w3.org/2000/svg" p-id="5330" xmlns:xlink="http://www.w3.org/1999/xlink" width="16" height="16"><path d="M0 448c0 35.4 28.6 64 64 64s64-28.6 64-64c0-106 86-192 192-192h320v64c0 25.8 15.6 49.2 39.6 59.2s51.4 4.4 69.8-13.8l128-128c25-25 25-65.6 0-90.6l-128-128c-18.4-18.4-45.8-23.8-69.8-13.8S640 38.2 640 64v64H320C143.2 128 0 271.2 0 448z m1024 128c0-35.4-28.6-64-64-64s-64 28.6-64 64c0 106-86 192-192 192H384v-64c0-25.8-15.6-49.2-39.6-59.2s-51.4-4.4-69.8 13.8l-128 128c-25 25-25 65.6 0 90.6l128 128c18.4 18.4 45.8 23.8 69.8 13.8s39.6-33.2 39.6-59.2V896h320c176.8 0 320-143.2 320-320z" p-id="5331" fill="#ffffff"></path></svg>