<svg viewBox="0 0 27 27" fill="none" xmlns="http://www.w3.org/2000/svg">
<path d="M13.5 27C20.9558 27 27 20.9558 27 13.5C27 6.04416 20.9558 0 13.5 0C6.04416 0 0 6.04416 0 13.5C0 20.9558 6.04416 27 13.5 27Z" fill="#FFD305"/>
<path d="M20.7132 19.2596L20.344 18.8905L20.2813 18.8262L18.7878 20.3191L18.8242 20.3549L19.2203 20.751C19.4739 21.0046 20.0113 20.8765 20.4268 20.4641C20.8424 20.0517 20.9668 19.5117 20.7132 19.2596Z" fill="white"/>
<path d="M16.7086 15.3099C17.545 14.1307 17.9106 12.6815 17.7337 11.2467C17.5568 9.81181 16.8502 8.49483 15.7524 7.55409C14.6546 6.61336 13.2449 6.11677 11.7998 6.16174C10.3548 6.20672 8.97874 6.79002 7.94158 7.79721C6.90441 8.8044 6.28102 10.1628 6.1937 11.6059C6.10637 13.049 6.56142 14.4726 7.46957 15.5975C8.37771 16.7224 9.67342 17.4674 11.1025 17.6863C12.5315 17.9052 13.9908 17.5822 15.194 16.7807L18.423 19.9611L19.9159 18.4687L16.7086 15.3099ZM12.0542 16.0266C11.2451 16.0267 10.454 15.7868 9.78119 15.3374C9.10833 14.8879 8.58388 14.249 8.27415 13.5014C7.96442 12.7539 7.88333 11.9313 8.04113 11.1376C8.19893 10.344 8.58853 9.61499 9.16066 9.04278C9.7328 8.47058 10.4618 8.08088 11.2554 7.92298C12.049 7.76508 12.8716 7.84607 13.6192 8.1557C14.3668 8.46533 15.0058 8.9897 15.4553 9.6625C15.9049 10.3353 16.1448 11.1263 16.1448 11.9355C16.1448 13.0204 15.7139 14.0609 14.9468 14.8281C14.1796 15.5954 13.1392 16.0265 12.0542 16.0266Z" fill="white"/>
</svg>
