<svg viewBox="0 0 31 35" xmlns="http://www.w3.org/2000/svg">
<g clip-path="url(#clip0_2405_12385)">
<path d="M25.8332 19.5C25.0408 19.4999 24.259 19.6823 23.5484 20.033C22.8379 20.3838 22.2177 20.8936 21.736 21.5228L21.6456 21.484C22.0008 20.3835 22.0541 19.2079 21.7998 18.0798C21.5455 16.9517 20.9929 15.9126 20.1999 15.071C19.4068 14.2293 18.4024 13.6161 17.2914 13.2953C16.1804 12.9744 15.0036 12.9578 13.884 13.2471L13.7664 13.0249C14.7047 12.1901 15.3063 11.0418 15.4585 9.79526C15.6108 8.54868 15.3032 7.28937 14.5934 6.25333C13.8837 5.21729 12.8204 4.47564 11.603 4.16737C10.3856 3.85911 9.09755 4.00538 7.98026 4.57879C6.86297 5.15219 5.99313 6.11337 5.53376 7.28218C5.07439 8.45099 5.05703 9.7472 5.48492 10.9279C5.91281 12.1086 6.75658 13.0927 7.85811 13.6959C8.95964 14.299 10.2433 14.4797 11.4686 14.2042L11.5628 14.3811C10.2712 15.3723 9.40239 16.8153 9.1307 18.4205C8.85901 20.0258 9.2046 21.6743 10.0981 23.0353L7.6633 25.3125C6.56276 24.7045 5.27826 24.5186 4.0505 24.7898C2.82274 25.0609 1.736 25.7705 0.993907 26.7855C0.251819 27.8005 -0.0946785 29.0512 0.0193459 30.3034C0.13337 31.5556 0.70009 32.7232 1.61331 33.5874C2.52653 34.4517 3.72356 34.9533 4.9801 34.9982C6.23664 35.0431 7.46645 34.6283 8.43906 33.8315C9.41167 33.0347 10.0603 31.9105 10.2635 30.6697C10.4667 29.4289 10.2104 28.1565 9.54268 27.0911L11.9168 24.8721C13.2207 25.7436 14.7975 26.1101 16.3521 25.903C17.9067 25.6959 19.3326 24.9295 20.363 23.747L20.7233 23.9007C20.567 24.9437 20.7336 26.0095 21.2007 26.9551C21.6678 27.9006 22.413 28.6805 23.3364 29.1901C24.2597 29.6997 25.3169 29.9146 26.3658 29.8058C27.4148 29.697 28.4054 29.2698 29.2045 28.5816C30.0037 27.8934 30.573 26.9771 30.8362 25.9558C31.0993 24.9346 31.0436 23.8573 30.6766 22.8686C30.3096 21.8799 29.6488 21.0272 28.783 20.425C27.9171 19.8229 26.8878 19.5001 25.8332 19.5ZM7.74984 9.16668C7.74984 8.65574 7.90135 8.15628 8.18521 7.73145C8.46907 7.30663 8.87253 6.97552 9.34458 6.77999C9.81662 6.58446 10.336 6.5333 10.8372 6.63298C11.3383 6.73266 11.7986 6.9787 12.1599 7.33999C12.5212 7.70127 12.7672 8.16158 12.8669 8.66269C12.9666 9.16381 12.9154 9.68324 12.7199 10.1553C12.5243 10.6273 12.1932 11.0308 11.7684 11.3146C11.3436 11.5985 10.8441 11.75 10.3332 11.75C9.64803 11.75 8.99095 11.4778 8.50648 10.9934C8.02201 10.5089 7.74984 9.85182 7.74984 9.16668ZM5.16651 32.4167C4.65557 32.4167 4.15611 32.2652 3.73129 31.9813C3.30646 31.6975 2.97535 31.294 2.77982 30.8219C2.5843 30.3499 2.53314 29.8305 2.63281 29.3294C2.73249 28.8282 2.97853 28.3679 3.33982 28.0067C3.7011 27.6454 4.16141 27.3993 4.66253 27.2997C5.16364 27.2 5.68307 27.2511 6.15511 27.4467C6.62715 27.6422 7.03061 27.9733 7.31447 28.3981C7.59833 28.823 7.74984 29.3224 7.74984 29.8333C7.74984 30.5185 7.47767 31.1756 6.9932 31.66C6.50873 32.1445 5.85165 32.4167 5.16651 32.4167ZM15.4998 23.375C14.6612 23.3734 13.8456 23.0997 13.1758 22.595C12.5059 22.0904 12.0178 21.382 11.7849 20.5763C11.5519 19.7706 11.5867 18.9111 11.8839 18.1268C12.1811 17.3425 12.7248 16.6759 13.4332 16.2269L13.9589 15.9466C14.4871 15.7169 15.0599 15.6077 15.6357 15.6272C16.2114 15.6467 16.7755 15.7943 17.287 16.0593C17.7985 16.3243 18.2445 16.6999 18.5925 17.159C18.9405 17.618 19.1818 18.1489 19.2988 18.7129C19.4158 19.277 19.4056 19.86 19.2689 20.4196C19.1322 20.9792 18.8724 21.5013 18.5085 21.9478C18.1446 22.3944 17.6858 22.7542 17.1653 23.0011C16.6448 23.248 16.0759 23.3757 15.4998 23.375ZM25.8332 27.25C25.3222 27.25 24.8228 27.0985 24.398 26.8146C23.9731 26.5308 23.642 26.1273 23.4465 25.6553C23.251 25.1832 23.1998 24.6638 23.2995 24.1627C23.3992 23.6616 23.6452 23.2013 24.0065 22.84C24.3678 22.4787 24.8281 22.2327 25.3292 22.133C25.8303 22.0333 26.3497 22.0845 26.8218 22.28C27.2938 22.4755 27.6973 22.8066 27.9811 23.2315C28.265 23.6563 28.4165 24.1557 28.4165 24.6667C28.4165 25.3518 28.1443 26.0089 27.6599 26.4934C27.1754 26.9778 26.5183 27.25 25.8332 27.25Z"/>
</g>
<path d="M24.928 11.296H21.436L20.836 13H19.408L22.396 4.648H23.98L26.968 13H25.528L24.928 11.296ZM24.544 10.18L23.188 6.304L21.82 10.18H24.544ZM29.6352 4.66V13H28.2672V4.66H29.6352Z"/>
<defs>
<clipPath id="clip0_2405_12385">
<rect width="31" height="31" transform="translate(0 4)"/>
</clipPath>
</defs>
</svg>
