<svg viewBox="0 0 31 31" xmlns="http://www.w3.org/2000/svg">
<g id="chart-network 1" clip-path="url(#clip0_2405_12374)">
<path id="Vector" d="M25.8332 15.5C25.0408 15.4999 24.259 15.6823 23.5484 16.033C22.8379 16.3838 22.2177 16.8936 21.736 17.5228L21.6456 17.484C22.0008 16.3835 22.0541 15.2079 21.7998 14.0798C21.5455 12.9517 20.9929 11.9126 20.1999 11.071C19.4068 10.2293 18.4024 9.61609 17.2914 9.29526C16.1804 8.97443 15.0036 8.95778 13.884 9.24705L13.7664 9.02489C14.7047 8.19011 15.3063 7.04184 15.4585 5.79526C15.6108 4.54868 15.3032 3.28937 14.5934 2.25333C13.8837 1.21729 12.8204 0.475641 11.603 0.167374C10.3856 -0.140892 9.09755 0.0053837 7.98026 0.578789C6.86297 1.15219 5.99313 2.11337 5.53376 3.28218C5.07439 4.45099 5.05703 5.7472 5.48492 6.9279C5.91281 8.10859 6.75658 9.09273 7.85811 9.69586C8.95964 10.299 10.2433 10.4797 11.4686 10.2042L11.5628 10.3811C10.2712 11.3723 9.40239 12.8153 9.1307 14.4205C8.85901 16.0258 9.2046 17.6743 10.0981 19.0353L7.6633 21.3125C6.56276 20.7045 5.27826 20.5186 4.0505 20.7898C2.82274 21.0609 1.736 21.7705 0.993907 22.7855C0.251819 23.8005 -0.0946785 25.0512 0.0193459 26.3034C0.13337 27.5556 0.70009 28.7232 1.61331 29.5874C2.52653 30.4517 3.72356 30.9533 4.9801 30.9982C6.23664 31.0431 7.46645 30.6283 8.43906 29.8315C9.41167 29.0347 10.0603 27.9105 10.2635 26.6697C10.4667 25.4289 10.2104 24.1565 9.54268 23.0911L11.9168 20.8721C13.2207 21.7436 14.7975 22.1101 16.3521 21.903C17.9067 21.6959 19.3326 20.9295 20.363 19.747L20.7233 19.9007C20.567 20.9437 20.7336 22.0095 21.2007 22.9551C21.6678 23.9006 22.413 24.6805 23.3364 25.1901C24.2597 25.6997 25.3169 25.9146 26.3658 25.8058C27.4148 25.697 28.4054 25.2698 29.2045 24.5816C30.0037 23.8934 30.573 22.9771 30.8362 21.9558C31.0993 20.9346 31.0436 19.8573 30.6766 18.8686C30.3096 17.8799 29.6488 17.0272 28.783 16.425C27.9171 15.8229 26.8878 15.5001 25.8332 15.5ZM7.74984 5.16668C7.74984 4.65574 7.90135 4.15628 8.18521 3.73145C8.46907 3.30663 8.87253 2.97552 9.34458 2.77999C9.81662 2.58446 10.336 2.5333 10.8372 2.63298C11.3383 2.73266 11.7986 2.9787 12.1599 3.33999C12.5212 3.70127 12.7672 4.16158 12.8669 4.66269C12.9666 5.16381 12.9154 5.68324 12.7199 6.15528C12.5243 6.62732 12.1932 7.03078 11.7684 7.31464C11.3436 7.5985 10.8441 7.75001 10.3332 7.75001C9.64803 7.75001 8.99095 7.47784 8.50648 6.99337C8.02201 6.5089 7.74984 5.85182 7.74984 5.16668ZM5.16651 28.4167C4.65557 28.4167 4.15611 28.2652 3.73129 27.9813C3.30646 27.6975 2.97535 27.294 2.77982 26.8219C2.5843 26.3499 2.53314 25.8305 2.63281 25.3294C2.73249 24.8282 2.97853 24.3679 3.33982 24.0067C3.7011 23.6454 4.16141 23.3993 4.66253 23.2997C5.16364 23.2 5.68307 23.2511 6.15511 23.4467C6.62715 23.6422 7.03061 23.9733 7.31447 24.3981C7.59833 24.823 7.74984 25.3224 7.74984 25.8333C7.74984 26.5185 7.47767 27.1756 6.9932 27.66C6.50873 28.1445 5.85165 28.4167 5.16651 28.4167ZM15.4998 19.375C14.6612 19.3734 13.8456 19.0997 13.1758 18.595C12.5059 18.0904 12.0178 17.382 11.7849 16.5763C11.5519 15.7706 11.5867 14.9111 11.8839 14.1268C12.1811 13.3425 12.7248 12.6759 13.4332 12.2269L13.9589 11.9466C14.4871 11.7169 15.0599 11.6077 15.6357 11.6272C16.2114 11.6467 16.7755 11.7943 17.287 12.0593C17.7985 12.3243 18.2445 12.6999 18.5925 13.159C18.9405 13.618 19.1818 14.1489 19.2988 14.7129C19.4158 15.277 19.4056 15.86 19.2689 16.4196C19.1322 16.9792 18.8724 17.5013 18.5085 17.9478C18.1446 18.3944 17.6858 18.7542 17.1653 19.0011C16.6448 19.248 16.0759 19.3757 15.4998 19.375ZM25.8332 23.25C25.3222 23.25 24.8228 23.0985 24.398 22.8146C23.9731 22.5308 23.642 22.1273 23.4465 21.6553C23.251 21.1832 23.1998 20.6638 23.2995 20.1627C23.3992 19.6616 23.6452 19.2013 24.0065 18.84C24.3678 18.4787 24.8281 18.2327 25.3292 18.133C25.8303 18.0333 26.3497 18.0845 26.8218 18.28C27.2938 18.4755 27.6973 18.8066 27.9811 19.2315C28.265 19.6563 28.4165 20.1557 28.4165 20.6667C28.4165 21.3518 28.1443 22.0089 27.6599 22.4934C27.1754 22.9778 26.5183 23.25 25.8332 23.25Z"/>
</g>
<defs>
<clipPath id="clip0_2405_12374">
<rect width="31" height="31"/>
</clipPath>
</defs>
</svg>
