<svg viewBox="0 0 49 49" fill="none" xmlns="http://www.w3.org/2000/svg">
<g clip-path="url(#clip0_3099_5472)">
<path d="M24.5 49C38.031 49 49 38.031 49 24.5C49 10.969 38.031 0 24.5 0C10.969 0 0 10.969 0 24.5C0 38.031 10.969 49 24.5 49Z" fill="#CCDCFF"/>
<path d="M4.63921 16.275V32.725H24.5L34.4304 24.5L24.5 16.275H4.63921Z" fill="white"/>
<path d="M24.5 16.275H44.3608V32.7251H24.5V16.275Z" fill="#E8E8E8"/>
<path d="M15.0603 13.8691V10.6265H6.64639V13.8691H9.232V35.1309H6.64639V38.3735H15.0603V35.1309H12.4746V13.8691H15.0603Z" fill="#5C5B68"/>
<path d="M15.6902 26.7571H21.9373V29.6282H15.6902V26.7571Z" fill="#397DEA"/>
<path d="M25.2401 26.7571H31.4871V29.6282H25.2401V26.7571Z" fill="#2C5DBF"/>
<path d="M34.7899 26.7571H41.0368V29.6282H34.7899V26.7571Z" fill="#2C5DBF"/>
</g>
<defs>
<clipPath id="clip0_3099_5472">
<rect width="49" height="49" fill="white"/>
</clipPath>
</defs>
</svg>
