<?xml version="1.0" standalone="no"?><!DOCTYPE svg PUBLIC "-//W3C//DTD SVG 1.1//EN" "http://www.w3.org/Graphics/SVG/1.1/DTD/svg11.dtd"><svg t="1680060057948" class="icon" viewBox="0 0 1024 1024" version="1.1" xmlns="http://www.w3.org/2000/svg" p-id="4342" xmlns:xlink="http://www.w3.org/1999/xlink" width="16" height="16"><path d="M512 324.266667V136.533333c0-6.826667-3.413333-13.653333-10.24-13.653333-6.826667-3.413333-13.653333-3.413333-17.066667 0l-477.866666 307.2c-3.413333 3.413333-6.826667 6.826667-6.826667 13.653333s3.413333 10.24 6.826667 13.653334l477.866666 341.333333c6.826667 3.413333 13.653333 3.413333 17.066667 0 6.826667-3.413333 10.24-10.24 10.24-13.653333v-187.733334c249.173333 10.24 474.453333 235.52 477.866667 290.133334 0 10.24 6.826667 17.066667 17.066666 17.066666s17.066667-6.826667 17.066667-17.066666c-3.413333-225.28-170.666667-552.96-512-563.2z" fill="#fff" p-id="4343"></path></svg>
