<svg viewBox="0 0 49 49" fill="none" xmlns="http://www.w3.org/2000/svg">
<g clip-path="url(#clip0_3099_5482)">
<path d="M24.5 49C38.031 49 49 38.031 49 24.5C49 10.969 38.031 0 24.5 0C10.969 0 0 10.969 0 24.5C0 38.031 10.969 49 24.5 49Z" fill="#CCDCFF"/>
<path d="M24.5 40.8393H22.1074V33.6616H24.5L25.3082 37.3102L24.5 40.8393Z" fill="#87ADFF"/>
<path d="M24.5 33.6616H26.8926V40.8393H24.5V33.6616Z" fill="#165DFF"/>
<path d="M24.5 42.5141H18.7578V40.6H24.5L25.1418 41.5571L24.5 42.5141Z" fill="#165DFF"/>
<path d="M24.5 40.6H30.2422V42.5141H24.5V40.6Z" fill="#0E57FF"/>
<path d="M25.7652 23.1178L24.5 13.3199H6.31641V31.5035L24.5 32.0662L25.7652 23.1178Z" fill="white"/>
<path d="M24.5 13.3199V32.0662L42.6836 31.5035V13.3199H24.5Z" fill="#EAEDF4"/>
<path d="M24.5 33.8961L25.3082 32.6998L24.5 31.5035H6.31641V33.8961H24.5Z" fill="#165DFF"/>
<path d="M24.5 31.5035H42.6836V33.8961H24.5V31.5035Z" fill="#0E57FF"/>
<path d="M36.1984 24.423L33.0352 23.3686L34.0895 26.5317L34.6168 26.0045L36.5291 27.9169L37.5835 26.8625L35.6711 24.9502L36.1984 24.423Z" fill="#5C5B68"/>
<path d="M19.0341 19.3L22.5075 19.9082L24.5 22.4558L25.9808 25.1862L24.5 28.7031L19.0341 25.5474V19.3Z" fill="#87ADFF"/>
<path d="M29.9659 25.5474V19.2358L26.5673 20.0223L24.5 22.4558V28.7031L29.9659 25.5474Z" fill="#165DFF"/>
<path d="M19.0341 19.3001L24.5 22.4558L25.7413 19.1264L24.5 16.0801L19.0341 19.3001Z" fill="#C1D4FD"/>
<path d="M24.5 16.0801V22.4558L29.9659 19.2359L24.5 16.0801Z" fill="#A9C3FC"/>
</g>
<defs>
<clipPath id="clip0_3099_5482">
<rect width="49" height="49" fill="white"/>
</clipPath>
</defs>
</svg>
