<?xml version="1.0" standalone="no"?><!DOCTYPE svg PUBLIC "-//W3C//DTD SVG 1.1//EN" "http://www.w3.org/Graphics/SVG/1.1/DTD/svg11.dtd">
<svg t="1687159843035" class="icon" viewBox="0 0 1024 1024" version="1.1" xmlns="http://www.w3.org/2000/svg" p-id="6846" xmlns:xlink="http://www.w3.org/1999/xlink" width="16" height="16">
<path d="M202.709333 909.269333a32.213333 32.213333 0 0 1 0-45.226666l135.765334-135.68a32 32 0 0 1 45.226666 45.226666l-135.68 135.68a31.914667 31.914667 0 0 1-45.226666 0zM277.333333 501.333333A224.64 224.64 0 0 1 53.333333 277.333333a220.885333 220.885333 0 0 1 84.48-174.933333 223.701333 223.701333 0 0 1 363.52 174.933333 219.050667 219.050667 0 0 1-8.533333 60.16 226.944 226.944 0 0 1-23.893333 55.466667 213.632 213.632 0 0 1-44.8 52.906667 219.776 219.776 0 0 1-146.773334 55.466666z m0-384a160 160 0 0 0-99.84 34.986667A158.08 158.08 0 0 0 117.333333 277.333333a161.834667 161.834667 0 0 0 23.04 82.346667 157.312 157.312 0 0 0 85.333334 68.693333 150.613333 150.613333 0 0 0 50.517333 8.533334 162.56 162.56 0 0 0 106.069333-39.68 169.898667 169.898667 0 0 0 32-37.546667 154.24 154.24 0 0 0 17.066667-39.722667 162.133333 162.133333 0 0 0 5.973333-42.666666A160.170667 160.170667 0 0 0 277.333333 117.333333z" fill="#fff" p-id="4532"></path>
<path d="M246.186667 349.013333V205.653333a32.213333 32.213333 0 0 1 32-32 32.213333 32.213333 0 0 1 32 32v143.36a32 32 0 0 1-64 0z" fill="#fff" p-id="4533"></path><path d="M204.842667 309.333333a32.213333 32.213333 0 0 1-32-32 32.213333 32.213333 0 0 1 32-32h143.36a32 32 0 0 1 0 64z" fill="#fff" p-id="4534"></path>
<path d="M952.936 92.657l-19.938-19.938c-10.966-10.966-29.879-11.488-42.723-0.57L444.074 451.436c-60.005 51.006-93.519 120.423-66.48 147.463l49.163 49.163c27.04 27.04 96.456-6.474 147.463-66.48l379.286-446.201c10.918-12.845 10.396-31.758-0.57-42.724zM73.296 929.203c-5.84-1.537-9.084-2.522-9.084-2.522s3.567 1.782 9.084 2.522z" p-id="6847" fill="#ffffff"></path>
<path d="M324.938 613.81s-191.199 0-191.199 173.817c0 134.45-41.599 144.101-60.443 141.576 59.14 15.56 386.009 87.906 338.55-228.485l-86.908-86.908z" p-id="6848" fill="#ffffff"></path>
</svg>