<?xml version="1.0" standalone="no"?><!DOCTYPE svg PUBLIC "-//W3C//DTD SVG 1.1//EN" "http://www.w3.org/Graphics/SVG/1.1/DTD/svg11.dtd"><svg t="1687144777404" class="icon" viewBox="0 0 1024 1024" version="1.1" xmlns="http://www.w3.org/2000/svg" p-id="4369" xmlns:xlink="http://www.w3.org/1999/xlink" width="16" height="16"><path fill="#fff" d="M452.8 12c-3-7.2-10-12-17.8-12h-38c-7.8 0-15 4.8-17.8 12l-41.4 103.4c-6.4 16-29.2 16-35.6 0L260.8 12c-3-7.2-10-12-17.8-12H224C171 0 128 43 128 96v416H896V96c0-53-43-96-96-96H589c-7.8 0-15 4.8-17.8 12l-41.4 103.4c-6.4 16-29.2 16-35.6 0L452.8 12zM128 576v64c0 70.6 57.4 128 128 128h128v128c0 70.6 57.4 128 128 128s128-57.4 128-128v-128h128c70.6 0 128-57.4 128-128v-64H128z m384 288a32 32 0 1 1 0 64 32 32 0 1 1 0-64z" p-id="4370"></path></svg>