<svg xmlns="http://www.w3.org/2000/svg" viewBox="0 0 34 34"><defs><style>.cls-1{fill:#fff;}.cls-2{fill:none;}</style></defs><path class="cls-1" d="M17.29,31.49c-2.62,0-5.23,0-7.85,0-1.68,0-2.24-.66-1.92-2.28.36-1.83.77-3.66,1.13-5.49a.9.9,0,0,1,1-.84q7.7,0,15.39,0a.91.91,0,0,1,1,.85c.37,1.83.78,3.65,1.13,5.48.32,1.62-.24,2.28-1.92,2.28C22.62,31.5,20,31.49,17.29,31.49Z"/><path class="cls-1" d="M17.39,20.05H9.92c-1,0-1.09-.12-1.09-1.06,0-.58,0-1.15,0-1.72a1.36,1.36,0,0,1,1.44-1.46c1.17,0,2.34,0,3.51,0,.56,0,.74-.19.73-.74,0-2.89.05-5.78,0-8.67C14.43,3.93,16,2.94,17.38,3s2.93,1,2.87,3.48c-.07,2.84,0,5.68,0,8.52,0,.64.16.89.84.86,1.09-.05,2.19,0,3.29,0a1.4,1.4,0,0,1,1.56,1.57c0,.6,0,1.2,0,1.8s-.36.89-1,.89Z"/><rect class="cls-2" x="2.89" y="2.83" width="28.35" height="28.35"/></svg>