<?xml version="1.0" standalone="no"?><!DOCTYPE svg PUBLIC "-//W3C//DTD SVG 1.1//EN" "http://www.w3.org/Graphics/SVG/1.1/DTD/svg11.dtd"><svg t="1684755248576" class="icon" viewBox="0 0 1024 1024" version="1.1" xmlns="http://www.w3.org/2000/svg" p-id="1309" xmlns:xlink="http://www.w3.org/1999/xlink" width="200" height="200"><path d="M797.722947 912.006737H648.623158c-59.634526 0-109.325474-49.690947-109.325474-109.325474v-263.356631h263.356632c59.634526 0 109.325474 49.690947 109.325473 109.325473v149.072842c0 29.803789-9.943579 54.649263-29.803789 79.494737-29.830737 24.818526-54.703158 34.762105-84.48 34.762105z m-422.373052 0H226.277053c-64.592842 0-114.256842-49.690947-114.256842-109.325474v-149.072842c0-29.803789 9.916632-59.634526 34.762105-79.494737 19.860211-19.887158 49.690947-34.789053 79.494737-34.789052h258.398315v263.356631c0 29.803789-9.943579 54.649263-29.803789 79.494737-24.845474 19.887158-49.690947 29.830737-79.521684 29.830737zM797.722947 489.633684h-263.383579V226.277053c0-29.803789 9.970526-59.634526 34.789053-79.494737 19.887158-19.860211 49.690947-34.762105 79.521684-34.762105h149.072842c59.607579 4.931368 109.298526 54.622316 109.298527 114.256842v149.072842c0 29.830737-9.916632 54.676211-29.80379 79.494737-24.845474 24.845474-49.690947 34.762105-79.494737 34.762105z m-313.047579 0H221.318737c-59.634526 0-109.325474-49.690947-109.325474-109.325473V231.235368c0-29.803789 9.943579-59.607579 34.789053-79.494736 19.860211-24.818526 49.690947-34.762105 74.536421-34.762106h149.072842c59.634526 0 109.298526 49.664 109.298526 109.298527v263.383579h4.958316v-0.026948z" p-id="1310"></path></svg>