<?xml version="1.0" standalone="no"?><!DOCTYPE svg PUBLIC "-//W3C//DTD SVG 1.1//EN" "http://www.w3.org/Graphics/SVG/1.1/DTD/svg11.dtd"><svg t="1687769038003" class="icon" viewBox="0 0 1024 1024" version="1.1" xmlns="http://www.w3.org/2000/svg" p-id="19880" xmlns:xlink="http://www.w3.org/1999/xlink" width="16" height="16"><path d="M444.61535621 141.3103025h134.80389404c9.3092649 0 17.23425293 3.1986692 23.84417772 9.88769578 6.57531762 6.49127173 9.87780761 14.52502465 9.87780762 23.78979492 0 9.26971435-3.30743408 17.20458984-9.87780762 23.78979493-6.60992408 6.59014916-14.53491211 9.88769508-23.84417772 9.88769507H444.61041283c-9.3092649 0-17.26391602-3.29754663-23.82934618-9.88769507-6.61486816-6.59014916-9.88769508-14.52008057-9.88769507-23.78979493 0-9.26477027 3.27282691-17.30346656 9.88769507-23.78485155 6.56542945-6.69396997 14.52008057-9.88769508 23.82934618-9.88769507z m404.46112084 269.50891137c9.29937744 0 17.25402856 3.39642334 23.81451392 9.88769507 6.62475562 6.59014916 9.89758325 14.52008057 9.89758325 23.88867235v134.80883742c0 9.26477027-3.27777099 17.19470239-9.89758325 23.78485155-6.56048608 6.59509253-14.51513648 9.88769508-23.81451392 9.88769507-9.3092649 0-17.26391602-3.29260253-23.82440209-9.88769507-6.61486816-6.59014916-9.89758325-14.52008057-9.89758254-23.78485155V444.59558129c0-9.36859107 3.28271508-17.29852319 9.89758254-23.88867235 6.56048608-6.49127173 14.51513648-9.88769508 23.82440209-9.88769507z m0 269.60778808c9.29937744 0 17.25402856 3.29754663 23.81451392 9.88769508 6.62475562 6.59014916 9.89758325 14.52008057 9.89758325 23.89361572v67.35003662c0 27.90801978-9.87780761 51.79669213-29.61364722 71.572083-19.74572778 19.66662597-43.57012915 29.55432105-71.48803711 29.55432105H714.25280738c-9.3092649 0-17.22930884-3.29260253-23.85406447-9.88769507-6.5505979-6.59014916-9.86792016-14.52008057-9.86792015-23.78485155 0-9.37353516 3.31237817-17.30346656 9.86792015-23.89361573 6.62475562-6.59014916 14.54479957-9.88769508 23.85406447-9.88769508h67.42419434c9.29937744 0 17.25402856-3.29260253 23.81451463-9.88769507 6.62475562-6.59014916 9.89758325-14.52008057 9.89758253-23.78485155V714.10449195c0-9.26971435 3.27777099-17.19964576 9.89758325-23.78979492 6.57531762-6.59014916 14.51513648-9.88769508 23.83428955-9.88769508h-0.04943871zM242.37738037 141.31524658H309.79663063c9.30432153 0 17.23425293 3.19372583 23.84417772 9.88769507 6.57531762 6.48632836 9.87780761 14.52008057 9.87780761 23.78485155 0 9.26971435-3.30249 17.20458984-9.87780761 23.78979493-6.60992408 6.59014916-14.53985619 9.88769508-23.84417773 9.88769507H242.37738037c-9.3092649 0-17.25897193 3.29754663-23.82440209 9.88769508-6.60992408 6.59014916-9.9074707 14.52008057-9.9074707 23.88867235V309.79663063c0 9.37353516-3.28271508 17.30346656-9.89758254 23.89361571-6.56048608 6.48632836-14.51513648 9.88769508-23.82440209 9.88769579-9.29937744 0-17.24414039-3.40136742-23.81451392-9.88769579C144.48425269 327.10009789 141.21142578 319.16522241 141.21142578 309.79663063V242.44165062C141.21142578 214.42980933 151.08923339 190.64990258 170.83496117 170.97338844c19.75561523-19.77539086 43.57012915-29.66308594 71.48309303-29.66308594h0.05932617zM444.61535621 815.23089599h134.80883812c9.3092649 0 17.23425293 3.29754663 23.84417701 9.88769508 6.57531762 6.59014916 9.87780761 14.52008057 9.87780762 23.89361573 0 9.26477027-3.30743408 17.19470239-9.87780762 23.78485155-6.60992408 6.59509253-14.53491211 9.88769508-23.84417701 9.88769507H444.61041283c-9.3092649 0-17.26391602-3.29260253-23.82934618-9.88769507-6.61486816-6.59014916-9.88769508-14.52008057-9.88769507-23.78485155 0-9.37353516 3.27282691-17.30346656 9.88769507-23.89361573 6.56542945-6.59014916 14.52008057-9.88769508 23.82934618-9.88769508z m-269.62261964-404.40673803c9.29443336 0 17.25402856 3.39147925 23.81945802 9.88275098 6.61486816 6.59014916 9.90252662 14.52008057 9.90252733 23.88867235v134.80883742c0 9.26477027-3.28765845 17.19470239-9.90252733 23.78485155-6.57037354 6.59509253-14.52008057 9.88769508-23.81945802 9.88769507-9.31420898 0-17.26391602-3.29260253-23.82934545-9.88769507C144.55346703 596.59912109 141.25592041 588.66918969 141.25592041 579.40441871V444.59558129c0-9.36859107 3.29754663-17.29852319 9.91241479-23.88867235 6.56048608-6.49127173 14.51019311-9.88769508 23.82440138-9.88769507z m0 269.60284399c9.29443336 0 17.25402856 3.29754663 23.81945802 9.88769508 6.61486816 6.59014916 9.90252662 14.52008057 9.90252733 23.89361572v67.35003662c0 9.36859107 3.27282691 17.30346656 9.89758253 23.88867235 6.56048608 6.59014916 14.51019311 9.88769508 23.81451463 9.88769508h67.4340818c9.29937744 0 17.23919702 3.29754663 23.82934546 9.88769507 6.56542945 6.59014916 9.88275171 14.52008057 9.88275171 23.78979493 0 9.26477027-3.31732154 17.19470239-9.87780763 23.88867234-6.59509253 6.49127173-14.53491211 9.88769508-23.83428954 9.88769508h-67.4340818c-27.91296386 0-51.71264625-9.88769508-71.48803711-29.66308594-19.75067115-19.77044677-29.61859131-43.55529761-29.6185913-71.46331811V714.20336937c0-9.26971435 3.27282691-17.20458984 9.89758253-23.78979492 6.56048608-6.59014916 14.51513648-9.88769508 23.81451463-9.88769578l-0.03955126-0.09887672zM714.26269555 141.31524658h67.41925025c27.92285133 0 51.74725342 9.78387428 71.4929812 29.55432105 19.73583961 19.77539086 29.61364722 43.5602417 29.61364722 71.4682622V309.79663063c0 9.26971435-3.27777099 17.20458984-9.89758325 23.78979492-6.56048608 6.59014916-14.51513648 9.88769508-23.81451392 9.88769578-9.3092649 0-17.26391602-3.29754663-23.82440209-9.88769578-6.61486816-6.59014916-9.89758325-14.52008057-9.89758254-23.78979493V242.33782983c0-9.26477027-3.28765845-17.19470239-9.89758324-23.78485155-6.57531762-6.59014916-14.51513648-9.88769508-23.83428955-9.88769508H714.20336937c-9.30432153 0-17.25402856-3.29754663-23.84417772-9.88769507-6.57531762-6.59014916-9.87780761-14.52008057-9.87780761-23.88867235 0-9.26971435 3.30249-17.20458984 9.87780761-23.78979492 6.59014916-6.59014916 14.53985619-9.88769508 23.84417773-9.88769508l0.049438 0.09887672z" p-id="19881" fill="#ffffff"></path></svg>