<?xml version="1.0" standalone="no"?><!DOCTYPE svg PUBLIC "-//W3C//DTD SVG 1.1//EN" "http://www.w3.org/Graphics/SVG/1.1/DTD/svg11.dtd"><svg t="1684754806620" class="icon" viewBox="0 0 1024 1024" version="1.1" xmlns="http://www.w3.org/2000/svg" p-id="745" xmlns:xlink="http://www.w3.org/1999/xlink" width="200" height="200"><path d="M179.2 524.288h678.912a25.6 25.6 0 0 0 0-51.2H179.2a25.6 25.6 0 0 0 0 51.2zM879.872 278.784v-56.32l-164.864 156.16h59.392l105.472-99.84zM879.872 352l-27.904 26.624h27.904v-26.624zM637.696 378.624l242.176-229.376v-15.616h-43.264l-258.304 244.992h59.392zM500.736 378.624l258.56-244.992h-59.392l-258.304 244.992h59.136zM364.032 378.624l258.304-244.992h-59.392l-258.56 244.992h59.648zM227.072 378.624l258.56-244.992h-59.392l-258.56 244.992h59.392zM289.792 133.632L156.16 260.352v55.808l192.512-182.528h-58.88zM156.16 133.632v53.504l56.32-53.504H156.16zM774.4 876.032l105.472-99.584v-56.576l-164.864 156.16h59.392zM879.872 876.032v-26.368l-27.904 26.368h27.904zM578.304 876.032h59.392l242.176-229.376v-15.36h-43.264l-258.304 244.736zM699.904 631.296l-258.304 244.736h59.136l258.56-244.736h-59.392zM562.944 631.296l-258.56 244.736h59.648l258.304-244.736h-59.392zM426.24 631.296l-258.56 244.736h59.392l258.56-244.736h-59.392zM289.792 631.296L156.16 758.016v55.808l192.512-182.528h-58.88zM156.16 684.544l56.32-53.248H156.16v53.248z" p-id="746"></path></svg>