<?xml version="1.0" standalone="no"?><!DOCTYPE svg PUBLIC "-//W3C//DTD SVG 1.1//EN" "http://www.w3.org/Graphics/SVG/1.1/DTD/svg11.dtd"><svg t="1684754822922" class="icon" viewBox="0 0 1024 1024" version="1.1" xmlns="http://www.w3.org/2000/svg" p-id="891" xmlns:xlink="http://www.w3.org/1999/xlink" width="200" height="200"><path d="M938.666667 298.666667c0 70.613333-57.386667 128-128 128s-128-57.386667-128-128c0-1.92 0-3.626667 0.213333-5.333334l-181.76-54.613333a107.029333 107.029333 0 0 1-63.786667 55.253333l69.333334 138.24c15.36-3.626667 31.573333-5.546667 48-5.546666 117.546667 0 213.333333 95.786667 213.333333 213.333333s-95.786667 213.333333-213.333333 213.333333c-85.333333 0-159.146667-50.56-193.066667-123.093333l-34.133333 22.613333c8.96 17.28 13.866667 36.906667 13.866666 57.813334 0 70.613333-57.386667 128-128 128s-128-57.386667-128-128 57.386667-128 128-128c34.773333 0 66.133333 13.653333 88.96 36.053333l44.8-29.866667c-3.84-15.573333-5.76-32-5.76-48.853333 0-85.973333 51.2-160.213333 124.586667-193.92l-74.24-148.48A106.474667 106.474667 0 0 1 298.666667 192c0-58.88 47.786667-106.666667 106.666666-106.666667s106.666667 47.786667 106.666667 106.666667c0 1.706667 0 3.626667-0.213333 5.333333l180.053333 53.973334A127.957333 127.957333 0 0 1 810.666667 170.666667c70.613333 0 128 57.386667 128 128z" p-id="892"></path></svg>