<?xml version="1.0" standalone="no"?><!DOCTYPE svg PUBLIC "-//W3C//DTD SVG 1.1//EN" "http://www.w3.org/Graphics/SVG/1.1/DTD/svg11.dtd"><svg t="1684754208293" class="icon" viewBox="0 0 1092 1024" version="1.1" xmlns="http://www.w3.org/2000/svg" p-id="665" xmlns:xlink="http://www.w3.org/1999/xlink" width="213.28125" height="200"><path d="M514.858667 116.928l318.336 130.624-1.28 3.2 2.88-1.152v448l-320 128-320-128v-448l2.816 1.152-1.28-3.2 318.528-130.624z m-256 227.2v310.144l224 89.6V434.24h1.28l-225.28-90.112z m512 0L545.322667 434.24h1.408v309.632l224-89.6V344.128z m-256.064-158.08L278.442667 283.072 514.794667 377.6l236.288-94.528-236.288-97.024z" fill="#000000" p-id="666"></path><path d="M132.522667 728.064v160h160v64h-224v-224h64z m830.272 0v224h-224v-64h160v-160h64zM292.522667 56.064v64h-160v160h-64v-224h224z m670.272 0v224h-64v-160h-160v-64h224z" fill="#000000" p-id="667"></path><path d="M4.266667 0h1024v1024H4.266667z" fill="#D8D8D8" fill-opacity="0" p-id="668"></path></svg>