<?xml version="1.0" standalone="no"?><!DOCTYPE svg PUBLIC "-//W3C//DTD SVG 1.1//EN" "http://www.w3.org/Graphics/SVG/1.1/DTD/svg11.dtd"><svg t="1684755085418" class="icon" viewBox="0 0 1024 1024" version="1.1" xmlns="http://www.w3.org/2000/svg" p-id="1169" xmlns:xlink="http://www.w3.org/1999/xlink" width="200" height="200"><path d="M950.360466 1024H609.205427a73.104651 73.104651 0 0 1-73.104651-73.104651V609.74031a73.104651 73.104651 0 0 1 73.104651-73.104652h341.155039a73.104651 73.104651 0 0 1 73.104652 73.104652v341.155039a73.104651 73.104651 0 0 1-73.104652 73.104651z m0-393.059342a21.297822 21.297822 0 0 0-21.346558-21.200348H630.527617a21.273454 21.273454 0 0 0-21.346558 21.200348v298.51066a21.32219 21.32219 0 0 0 21.346558 21.444031h298.486291a21.346558 21.346558 0 0 0 21.346558-21.444031V630.940658z m-130.808589-159.855504a56.656105 56.656105 0 0 1-80.195802 0l-187.123539-187.147907a56.656105 56.656105 0 0 1 0-80.171434L739.356075 16.617906a56.656105 56.656105 0 0 1 80.195802 0l187.172275 187.147907a56.704841 56.704841 0 0 1 0 80.171434z m102.63893-236.128023l-132.806783-132.806783a13.183205 13.183205 0 0 0-18.958473 0l-132.782414 132.806783a13.402519 13.402519 0 0 0 0 19.007209l132.782414 132.806783a13.621833 13.621833 0 0 0 18.958473 0l132.806783-132.806783a13.451256 13.451256 0 0 0 0-19.007209zM414.25969 1024H73.104651a73.104651 73.104651 0 0 1-73.104651-73.104651V609.74031a73.104651 73.104651 0 0 1 73.104651-73.104652h341.155039a73.104651 73.104651 0 0 1 73.104652 73.104652v341.155039a73.104651 73.104651 0 0 1-73.104652 73.104651z m0-393.059342a21.249085 21.249085 0 0 0-21.322189-21.200348H94.426841a21.273454 21.273454 0 0 0-21.346558 21.200348v298.51066a21.32219 21.32219 0 0 0 21.346558 21.444031h298.486291a21.297822 21.297822 0 0 0 21.32219-21.444031V630.940658z m0-143.285116H73.104651a73.104651 73.104651 0 0 1-73.104651-73.104651v-341.15504a73.104651 73.104651 0 0 1 73.104651-73.104651h341.155039a73.104651 73.104651 0 0 1 73.104652 73.104651v341.15504a73.104651 73.104651 0 0 1-73.104652 73.104651z m0-392.81566a21.249085 21.249085 0 0 0-21.322189-21.200348H94.426841a21.273454 21.273454 0 0 0-21.346558 21.200348v298.51066a21.32219 21.32219 0 0 0 21.346558 21.444031h298.486291a21.297822 21.297822 0 0 0 21.32219-21.444031V94.839882z" fill="#333333" p-id="1170"></path></svg>