<svg width="14" height="16" viewBox="0 0 14 16" fill="white" xmlns="http://www.w3.org/2000/svg">
<path d="M4.28544 2.14118H4.14258C4.22115 2.14118 4.28544 2.0769 4.28544 1.99833V2.14118H9.71401V1.99833C9.71401 2.0769 9.77829 2.14118 9.85687 2.14118H9.71401V3.4269H10.9997V1.99833C10.9997 1.36797 10.4872 0.855469 9.85687 0.855469H4.14258C3.51222 0.855469 2.99972 1.36797 2.99972 1.99833V3.4269H4.28544V2.14118ZM13.2854 3.4269H0.714007C0.397935 3.4269 0.142578 3.68225 0.142578 3.99833V4.56975C0.142578 4.64833 0.206864 4.71261 0.285435 4.71261H1.36401L1.80508 14.0519C1.83365 14.6608 2.33722 15.1412 2.94615 15.1412H11.0533C11.664 15.1412 12.1658 14.6626 12.1944 14.0519L12.6354 4.71261H13.714C13.7926 4.71261 13.8569 4.64833 13.8569 4.56975V3.99833C13.8569 3.68225 13.6015 3.4269 13.2854 3.4269ZM10.9158 13.8555H3.08365L2.65151 4.71261H11.3479L10.9158 13.8555Z"/>
</svg>
