<svg width="16" height="16" viewBox="0 0 16 16" fill="none" xmlns="http://www.w3.org/2000/svg">
<g clip-path="url(#clip0_161_4940)">
<path d="M15.0003 7.99833H14.0003C13.9217 7.99833 13.8574 8.06261 13.8574 8.14118V13.8555H2.14314V2.14118H7.85742C7.93599 2.14118 8.00028 2.0769 8.00028 1.99833V0.998326C8.00028 0.919754 7.93599 0.855469 7.85742 0.855469H1.42885C1.11278 0.855469 0.857422 1.11083 0.857422 1.4269V14.5698C0.857422 14.8858 1.11278 15.1412 1.42885 15.1412H14.5717C14.8878 15.1412 15.1431 14.8858 15.1431 14.5698V8.14118C15.1431 8.06261 15.0789 7.99833 15.0003 7.99833Z" fill="white"/>
<path d="M5.21266 8.40725L5.17873 10.5305C5.17695 10.6894 5.30552 10.8198 5.46445 10.8198H5.47159L7.57873 10.768C7.61445 10.7662 7.65016 10.7519 7.67516 10.7269L15.1019 3.31618C15.1573 3.26083 15.1573 3.16975 15.1019 3.1144L12.8823 0.89654C12.8537 0.867969 12.818 0.855469 12.7805 0.855469C12.743 0.855469 12.7073 0.869755 12.6787 0.89654L5.25373 8.30725C5.22794 8.33423 5.21327 8.36994 5.21266 8.40725ZM6.34659 8.82868L12.7805 2.40904L13.5877 3.2144L7.15016 9.63761L6.33409 9.65725L6.34659 8.82868Z" fill="white"/>
</g>
<defs>
<clipPath id="clip0_161_4940">
<rect width="16" height="16" fill="white"/>
</clipPath>
</defs>
</svg>
