<svg t="1690855551699" class="icon" viewBox="0 0 1024 1024" version="1.1" xmlns="http://www.w3.org/2000/svg" p-id="11123" width="200" height="200"><path d="M853.333333 426.666667a42.666667 42.666667 0 0 1 42.666667 42.666666v85.333334a42.666667 42.666667 0 0 1-85.333333 0v-85.333334a42.666667 42.666667 0 0 1 42.666666-42.666666z m-42.837333-85.333334l0.042667-94.122666a8.533333 8.533333 0 0 0-13.312-7.082667L305.536 570.453333a8.533333 8.533333 0 0 0 1.877333 15.146667l132.010667 47.061333a17.066667 17.066667 0 0 0 18.048-4.266666l270.336-283.178667a10.325333 10.325333 0 0 1 15.232-0.981333 12.117333 12.117333 0 0 1 1.92 14.848l-182.016 310.101333-27.093333 103.594667a4.266667 4.266667 0 0 0 7.296 3.925333l65.066666-72.448a17.066667 17.066667 0 0 1 18.432-4.693333l43.136 15.445333 128.853334 46.037333a8.533333 8.533333 0 0 0 11.434666-8.021333L810.154667 682.666667a42.666667 42.666667 0 1 1 85.333333 0l-0.170667 177.493333c0 6.101333-2.56 11.818667-6.826666 15.402667a15.317333 15.317333 0 0 1-14.848 2.858666l-232.533334-83.072-123.818666 137.898667a14.933333 14.933333 0 0 1-18.218667 3.84 18.645333 18.645333 0 0 1-8.192-8.490667L383.573333 703.402667l-243.712-87.04a18.858667 18.858667 0 0 1-11.690666-16.213334 20.138667 20.138667 0 0 1 8.106666-18.773333L870.741333 88.021333a14.933333 14.933333 0 0 1 16.810667-0.085333c5.248 3.456 8.448 9.856 8.448 16.768L895.786667 341.333333a42.666667 42.666667 0 0 1-85.333334 0z" fill="#31303D" p-id="11124"></path></svg>