<svg t="1683338319988" class="icon" viewBox="0 0 1152 1024" version="1.1" xmlns="http://www.w3.org/2000/svg" p-id="3133" width="16" height="16"><path d="M1056 896H96c-53.02 0-96-42.98-96-96V224c0-53.02 42.98-96 96-96h960c53.02 0 96 42.98 96 96v576c0 53.02-42.98 96-96 96zM256 360v-80c0-13.254-10.746-24-24-24H152c-13.254 0-24 10.746-24 24v80c0 13.254 10.746 24 24 24h80c13.254 0 24-10.746 24-24z m192 0v-80c0-13.254-10.746-24-24-24h-80c-13.254 0-24 10.746-24 24v80c0 13.254 10.746 24 24 24h80c13.254 0 24-10.746 24-24z m192 0v-80c0-13.254-10.746-24-24-24h-80c-13.254 0-24 10.746-24 24v80c0 13.254 10.746 24 24 24h80c13.254 0 24-10.746 24-24z m192 0v-80c0-13.254-10.746-24-24-24h-80c-13.254 0-24 10.746-24 24v80c0 13.254 10.746 24 24 24h80c13.254 0 24-10.746 24-24z m192 0v-80c0-13.254-10.746-24-24-24h-80c-13.254 0-24 10.746-24 24v80c0 13.254 10.746 24 24 24h80c13.254 0 24-10.746 24-24z m-672 192v-80c0-13.254-10.746-24-24-24h-80c-13.254 0-24 10.746-24 24v80c0 13.254 10.746 24 24 24h80c13.254 0 24-10.746 24-24z m192 0v-80c0-13.254-10.746-24-24-24h-80c-13.254 0-24 10.746-24 24v80c0 13.254 10.746 24 24 24h80c13.254 0 24-10.746 24-24z m192 0v-80c0-13.254-10.746-24-24-24h-80c-13.254 0-24 10.746-24 24v80c0 13.254 10.746 24 24 24h80c13.254 0 24-10.746 24-24z m192 0v-80c0-13.254-10.746-24-24-24h-80c-13.254 0-24 10.746-24 24v80c0 13.254 10.746 24 24 24h80c13.254 0 24-10.746 24-24z m-672 192v-80c0-13.254-10.746-24-24-24H152c-13.254 0-24 10.746-24 24v80c0 13.254 10.746 24 24 24h80c13.254 0 24-10.746 24-24z m576 0v-80c0-13.254-10.746-24-24-24H344c-13.254 0-24 10.746-24 24v80c0 13.254 10.746 24 24 24h464c13.254 0 24-10.746 24-24z m192 0v-80c0-13.254-10.746-24-24-24h-80c-13.254 0-24 10.746-24 24v80c0 13.254 10.746 24 24 24h80c13.254 0 24-10.746 24-24z" fill="" p-id="3134"></path></svg>