<!-- <svg t="1667533662035"
    class="icon" viewBox="0 0 1024 1024" version="1.1" xmlns="http://www.w3.org/2000/svg" p-id="4116"
    xmlns:xlink="http://www.w3.org/1999/xlink" width="18" height="18">
    <path
        d="M588.8 358.4a25.6 25.6 0 0 1-25.6-25.6C563.2 262.2464 505.7536 204.8 435.2 204.8a25.6 25.6 0 0 1 0-51.2C505.7536 153.6 563.2 96.1536 563.2 25.6a25.6 25.6 0 0 1 51.2 0C614.4 96.1536 671.8464 153.6 742.4 153.6a25.6 25.6 0 0 1 0 51.2A128.1536 128.1536 0 0 0 614.4 332.8a25.6 25.6 0 0 1-25.6 25.6z m-61.3888-179.2c25.088 15.1552 46.2336 36.2496 61.3888 61.3888 15.1552-25.088 36.2496-46.2336 61.3888-61.3888A181.0432 181.0432 0 0 1 588.8 117.8112c-15.1552 25.088-36.2496 46.2336-61.3888 61.3888zM76.8 512c-14.1312 0-25.6-11.4688-25.6-25.6S39.7312 460.8 25.6 460.8a25.6 25.6 0 0 1 0-51.2c14.1312 0 25.6-11.4688 25.6-25.6a25.6 25.6 0 0 1 51.2 0c0 14.1312 11.4688 25.6 25.6 25.6a25.6 25.6 0 0 1 0 51.2c-14.1312 0-25.6 11.4688-25.6 25.6s-11.4688 25.6-25.6 25.6zM929.1264 816.0768L387.1232 274.0736c-14.4896-14.4896-33.7408-22.4256-54.3232-22.4256s-39.8336 7.9872-54.3232 22.4256l-30.0032 30.0032c-14.4896 14.4896-22.4256 33.7408-22.4256 54.3232s7.9872 39.8336 22.4256 54.3232l542.0032 542.0032c14.4896 14.4896 33.7408 22.4256 54.3232 22.4256s39.8336-7.9872 54.3232-22.4256l30.0032-30.0032c14.4896-14.4896 22.4256-33.7408 22.4256-54.3232s-7.9872-39.8336-22.4256-54.3232zM284.7232 340.2752l30.0032-30.0032c4.8128-4.8128 11.2128-7.424 18.1248-7.424s13.312 2.6624 18.1248 7.424l73.6768 73.6768-66.2016 66.2016-73.6768-73.6768a25.6 25.6 0 0 1 0-36.1984z m608.1536 548.2496l-30.0032 30.0032c-4.8128 4.8128-11.2128 7.424-18.0736 7.424s-13.312-2.6624-18.0736-7.424L394.6496 486.4512l66.2016-66.2016 432.0768 432.0768a25.6 25.6 0 0 1 0 36.1984zM179.2 256a25.6 25.6 0 0 1-25.6-25.6C153.6 188.0576 119.1424 153.6 76.8 153.6a25.6 25.6 0 0 1 0-51.2C119.1424 102.4 153.6 67.9424 153.6 25.6a25.6 25.6 0 0 1 51.2 0C204.8 67.9424 239.2576 102.4 281.6 102.4a25.6 25.6 0 0 1 0 51.2C239.2576 153.6 204.8 188.0576 204.8 230.4a25.6 25.6 0 0 1-25.6 25.6z m-25.7024-128c9.728 7.3216 18.3808 15.9744 25.7024 25.7024a130.048 130.048 0 0 1 25.7024-25.7024 130.048 130.048 0 0 1-25.7024-25.7024 130.048 130.048 0 0 1-25.7024 25.7024zM179.2 768a25.6 25.6 0 0 1-25.6-25.6c0-42.3424-34.4576-76.8-76.8-76.8a25.6 25.6 0 0 1 0-51.2c42.3424 0 76.8-34.4576 76.8-76.8a25.6 25.6 0 0 1 51.2 0c0 42.3424 34.4576 76.8 76.8 76.8a25.6 25.6 0 0 1 0 51.2c-42.3424 0-76.8 34.4576-76.8 76.8a25.6 25.6 0 0 1-25.6 25.6z m-25.7024-128c9.728 7.3216 18.3808 15.9744 25.7024 25.7024a130.048 130.048 0 0 1 25.7024-25.7024 130.048 130.048 0 0 1-25.7024-25.7024 130.048 130.048 0 0 1-25.7024 25.7024z"
        fill="#fff" p-id="4117"></path>
</svg> -->

<svg t="1682673619136" class="icon" viewBox="0 0 1024 1024" version="1.1" xmlns="http://www.w3.org/2000/svg" p-id="38692" width="16" height="16"><path d="M448 192l32-64 64-32-64-32-32-64-32 64-64 32 64 32 32 64zM160 320l53.32-106.66L320 160l-106.68-53.34L160 0 106.68 106.66 0 160l106.68 53.34L160 320z m704 256l-53.32 106.66L704 736l106.68 53.34L864 896l53.32-106.66L1024 736l-106.68-53.34L864 576z m141.24-387.54L835.54 18.76C823.06 6.24 806.68 0 790.3 0c-16.38 0-32.76 6.24-45.26 18.76L18.76 745.04c-25 25-25 65.52 0 90.5l169.7 169.7c12.5 12.5 28.88 18.74 45.24 18.74 16.38 0 32.76-6.24 45.26-18.74l726.28-726.3c25-24.96 25-65.5 0-90.48zM718.9 406.92l-101.82-101.82 173.2-173.2 101.82 101.82-173.2 173.2z" fill="#fff" p-id="38693"></path></svg>