<svg id="图层_1" data-name="图层 1" xmlns="http://www.w3.org/2000/svg" viewBox="0 0 34.02 34.02"><defs><style>.cls-1{fill:#fff;}</style></defs><path class="cls-1" d="M30.88,21.21a1.6,1.6,0,0,1-1,1.35c-1.54.75-3.08,1.51-4.59,2.31a2.18,2.18,0,0,0-.87.86c-.79,1.49-1.53,3-2.27,4.53a1.49,1.49,0,0,1-2.89-.18Q17.2,23.8,15.1,17.52a1.49,1.49,0,0,1,2-2l12.55,4.19A1.56,1.56,0,0,1,30.88,21.21Zm-5.25.23-6.94-2.32,2.32,7c.37-.74.71-1.3.95-1.9a3,3,0,0,1,1.8-1.79C24.36,22.14,24.91,21.81,25.63,21.44Z"/><path class="cls-1" d="M7.34,6.09a4.23,4.23,0,0,1,.89.54c1,1,2,2,3,3a1.45,1.45,0,1,1-2,2c-1-1-2.06-2-3.07-3.07A1.37,1.37,0,0,1,5.83,7,1.6,1.6,0,0,1,7.34,6.09Z"/><path class="cls-1" d="M22.35,12.35a6.61,6.61,0,0,1-1.12-.92,1.14,1.14,0,0,1,.09-1.51c1.14-1.19,2.3-2.37,3.5-3.49a1.31,1.31,0,0,1,1.84.1,1.34,1.34,0,0,1,.14,1.9c-1.11,1.19-2.28,2.32-3.45,3.45A3.92,3.92,0,0,1,22.35,12.35Z"/><path class="cls-1" d="M7,27.68a6,6,0,0,1-1.13-.9A1.12,1.12,0,0,1,6,25.28c1.15-1.21,2.32-2.4,3.55-3.54a1.32,1.32,0,0,1,1.84.17,1.33,1.33,0,0,1,.1,1.85C10.35,25,9.16,26.11,8,27.25A3.75,3.75,0,0,1,7,27.68Z"/><path class="cls-1" d="M17.87,6c0,.67,0,1.35,0,2A1.46,1.46,0,1,1,15,8c0-1.37,0-2.75,0-4.13a1.49,1.49,0,0,1,1.46-1.56,1.51,1.51,0,0,1,1.45,1.57C17.88,4.62,17.87,5.32,17.87,6Z"/><path class="cls-1" d="M5.48,18.3c-.65,0-1.31,0-2,0A1.5,1.5,0,0,1,1.93,16.8a1.48,1.48,0,0,1,1.59-1.42c1.35,0,2.71,0,4.07,0a1.49,1.49,0,0,1,1.59,1.49,1.5,1.5,0,0,1-1.6,1.42C6.89,18.31,6.18,18.3,5.48,18.3Z"/><path class="cls-1" d="M25.63,21.44c-.72.37-1.27.7-1.87.94A3,3,0,0,0,22,24.17c-.24.6-.58,1.16-.95,1.9l-2.32-6.95Z"/></svg>