<svg xmlns="http://www.w3.org/2000/svg" viewBox="0 0 34.02 34.02"><defs><style>.cls-1,.cls-3{fill:none;}.cls-2{fill:#fcfefe;}.cls-3{stroke:#fcfeff;stroke-linecap:round;stroke-miterlimit:10;stroke-width:2px;}</style></defs><path class="cls-1" d="M5.28,16.36V6.08a1,1,0,0,1,1-1h22.2a1,1,0,0,1,1,1V27.75a1,1,0,0,1-1,.95h-10v2.39H31.4V2.74H3.17V16.36Z"/><rect class="cls-1" x="3.06" y="2.74" width="0.11" height="13.62"/><path class="cls-2" d="M7.28,7.12H27.4V26.7H18.49v2h10a1,1,0,0,0,1-.95V6.08a1,1,0,0,0-1-1H6.24a1,1,0,0,0-1,1V16.36h2Z"/><path class="cls-2" d="M4.82,28.43a.87.87,0,0,0,.11,1.19,1,1,0,0,0,1.19.09c3.29-2.56,4.66-2.56,8,0a.92.92,0,0,0,1.28-1.28c-2.56-3.29-2.56-4.66,0-8a.92.92,0,0,0-1.28-1.28c-3.29,2.56-4.66,2.56-8,0A1.37,1.37,0,0,0,5.57,19a.83.83,0,0,0-.64.27.87.87,0,0,0-.09,1.19C7.47,23.77,7.47,25.05,4.82,28.43Z"/><line class="cls-3" x1="19.24" y1="10.15" x2="24.99" y2="10.08"/><line class="cls-3" x1="24.99" y1="15.91" x2="24.99" y2="10.08"/><line class="cls-3" x1="17.97" y1="17.19" x2="24.99" y2="10.08"/></svg>