<svg xmlns="http://www.w3.org/2000/svg" viewBox="0 0 34.02 34.02"><defs><style>.cls-1{fill:#fff;}</style></defs><path class="cls-1" d="M26.08,18.47c0-.71,0-1.29,0-1.87s.27-1.19,1-1.25,1.05.45,1.06,1.29c0,.57,0,1.15,0,1.83h1.92c.76,0,1.25.46,1.19,1.08a1,1,0,0,1-1.18,1H28.16v1.74c0,.91-.39,1.41-1.06,1.39s-1-.49-1-1.42V20.55H24.19c-.71,0-1.21-.29-1.21-1s.5-1,1.21-1Z"/><path class="cls-1" d="M12.81,6.47c.62,0,1.11,0,1.59,0a1,1,0,0,1,1,1,1,1,0,0,1-1,1.07c-.49,0-1,0-1.58,0,0,.53,0,1,0,1.5,0,.68-.38,1.11-1.07,1.1a1,1,0,0,1-1-1.08c0-.46,0-.92,0-1.52-.51,0-1,0-1.46,0-.68,0-1.13-.36-1.12-1s.46-1,1.14-1h1.44c0-.56,0-1,0-1.53a1,1,0,1,1,2.06,0C12.83,5.39,12.81,5.88,12.81,6.47Z"/><path class="cls-1" d="M19.93,24.67c.11-1.56.33-2,1.05-2s1,.44,1.12,2c.8.17,2.09-.2,2,1.22-.07,1.15-1.14.89-2,.95-.18.8.22,2.11-1.2,2-1.18-.07-.89-1.19-1-2-.84-.09-1.91.21-2-1.06C17.83,25.08,18.29,24.84,19.93,24.67Z"/><path class="cls-1" d="M30.2,6,27.69,3.51a2.15,2.15,0,0,0-3.06,0L3.27,24.92a2.2,2.2,0,0,0,0,3.08l2.51,2.51a2.17,2.17,0,0,0,3.06,0L30.2,9.09A2.19,2.19,0,0,0,30.2,6ZM29,8.47l-4.39,4.39a.94.94,0,0,1-1.35,0l-2.28-2.28a1,1,0,0,1,0-1.36l4.38-4.39a1,1,0,0,1,1.36,0L29,7.11A1,1,0,0,1,29,8.47Z"/></svg>