<svg id="图层_1" data-name="图层 1" xmlns="http://www.w3.org/2000/svg" viewBox="0 0 34.02 34.02"><defs><style>.cls-1{fill:#fff;}.cls-2{fill:#fcfefe;}</style></defs><path class="cls-1" d="M15.22,14.73,21,9l10.1,10.1L25.3,24.86Z"/><path class="cls-1" d="M14.33,15.43,24.67,25.79c-.87.86-1.78,1.78-2.71,2.68-.09.08-.37,0-.53-.07-1.31-.58-2.63-1.16-3.92-1.78a.74.74,0,0,0-1,.17q-1.75,1.82-3.57,3.56a2.14,2.14,0,0,1-2.33.51,2.08,2.08,0,0,1-1.42-1.69,2.2,2.2,0,0,1,.67-2.05C11,26,12.14,24.8,13.32,23.66a.74.74,0,0,0,.19-1c-.61-1.27-1.16-2.57-1.77-3.85a.67.67,0,0,1,.15-.91C12.73,17.09,13.52,16.26,14.33,15.43ZM12.51,28.61a1,1,0,1,0-2,.05,1,1,0,0,0,2-.05Z"/><path class="cls-2" d="M3.2,12.66a.89.89,0,0,0,.11,1.23,1,1,0,0,0,1.23.1c3.4-2.65,4.82-2.65,8.27,0a.95.95,0,0,0,1.32-1.33c-2.64-3.4-2.64-4.81,0-8.26A.9.9,0,0,0,14,3.17a.89.89,0,0,0-1.23-.1C9.41,5.72,8,5.72,4.54,3.07A1.27,1.27,0,0,0,4,2.89a.84.84,0,0,0-.66.28A.9.9,0,0,0,3.22,4.4C5.94,7.85,5.94,9.17,3.2,12.66Z"/></svg>