<svg width="18" height="18" viewBox="0 0 14 13" fill="white" stroke="white" stroke-width="0" xmlns="http://www.w3.org/2000/svg">
    <line y1="12.25" x2="14" y2="12.25" stroke-width="1.5" stroke-dasharray="2 2"/>
    <path d="M12.7617 5.6553C11.492 2.98075 9.57285 1.63477 7.00008 1.63477C4.42597 1.63477 2.50811 2.98075 1.23847 5.65664C1.18754 5.76448 1.16113 5.88225 1.16113 6.00151C1.16113 6.12076 1.18754 6.23854 1.23847 6.34637C2.50811 9.02093 4.42731 10.3669 7.00008 10.3669C9.57418 10.3669 11.492 9.02093 12.7617 6.34503C12.8648 6.12807 12.8648 5.87628 12.7617 5.6553V5.6553ZM7.00008 9.40262C4.83981 9.40262 3.25811 8.30709 2.14249 6.00084C3.25811 3.69459 4.83981 2.59905 7.00008 2.59905C9.16035 2.59905 10.742 3.69459 11.8577 6.00084C10.7434 8.30709 9.16168 9.40262 7.00008 9.40262ZM6.94651 3.64369C5.64472 3.64369 4.58936 4.69905 4.58936 6.00084C4.58936 7.30262 5.64472 8.35798 6.94651 8.35798C8.24829 8.35798 9.30365 7.30262 9.30365 6.00084C9.30365 4.69905 8.24829 3.64369 6.94651 3.64369ZM6.94651 7.50084C6.11749 7.50084 5.44651 6.82986 5.44651 6.00084C5.44651 5.17182 6.11749 4.50084 6.94651 4.50084C7.77552 4.50084 8.44651 5.17182 8.44651 6.00084C8.44651 6.82986 7.77552 7.50084 6.94651 7.50084Z"/>
</svg>
