<svg width="16" height="16" viewBox="0 0 20 20" fill="none" xmlns="http://www.w3.org/2000/svg">
<g clip-path="url(#clip0_196_209)">
<path d="M16.7 10C16.7 9.9 16.7 9.9 16.8 9.8C16.8 9.8 16.8 9.7 16.8 9.6C16.8 9.5 16.8 9.5 16.7 9.5L13.5 6.3C12.5 5.3 11.5 4.3 10.4 3.2C10.4 3.2 10.4 3.2 10.4 3.1C10.4 3.1 10.4 3.1 10.3 3.1H10.2H10.1C10 3.3 9.8 3.4 9.5 3.4C7.8 4.1 6.1 4.7 4.3 5.3C4.2 5.3 4.2 5.4 4.1 5.4C4 5.4 4.1 5.5 4.1 5.6C3.9 6.2 3.7 6.8 3.5 7.5C3 9.2 2.5 11 2 12.7L0.3 18.4C0.2 18.7 0.1 19.1 0 19.4L0.2 19.3L7 12.4C7 12.4 7 12.4 7.1 12.3V12.2V12.1V12C7 11.8 6.9 11.5 6.9 11.2C6.9 10.9 6.9 10.6 7 10.4C7.1 10.1 7.3 9.9 7.5 9.7C7.7 9.5 7.9 9.4 8.2 9.3C8.4 9.3 8.7 9.3 9 9.3C9.3 9.3 9.5 9.4 9.8 9.6C10 9.7 10.2 9.9 10.4 10.2C11.3 9.4 12.4 9 13.7 9C14.8 9 15.9 9.4 16.7 10Z" fill="white"/>
<path d="M8.59995 13.2C8.49995 13.2 8.39995 13.2 8.29995 13.2C8.09995 13.1 7.99995 13 7.79995 12.9L0.699951 20L4.69995 18.8L9.69995 17.4C8.99995 16.5 8.49995 15.4 8.49995 14.1C8.49995 13.8 8.59995 13.5 8.59995 13.2Z" fill="white"/>
<path d="M11.3 2.6C13.1 4.4 14.9 6.2 16.7 8C17 8.3 17.2 8.5 17.5 8.8L20 7.2L12.8 0L12.7 0.1C12.2 0.9 11.7 1.6 11.2 2.3C11.2 2.3 11.2 2.3 11.2 2.4C11.2 2.4 11.2 2.4 11.2 2.5C11.2 2.5 11.2 2.5 11.3 2.6C11.2 2.6 11.2 2.6 11.3 2.6Z" fill="white"/>
<path d="M16.4 11C15.7 10.4 14.7 9.9 13.7 9.9C12.5 9.9 11.4 10.4 10.7 11.2C10.3 11.7 9.89998 12.2 9.79998 12.9C9.69998 13.3 9.59998 13.6 9.59998 14C9.59998 15.2 10.1 16.2 10.9 17C11.6 17.7 12.6 18.2 13.8 18.2C16.1 18.2 17.9 16.3 17.9 14.1C17.8 12.9 17.2 11.8 16.4 11ZM15.3 15.1H14.6V15.9C14.6 16.5 14.2 16.9 13.6 16.9C13 16.9 12.6 16.5 12.6 15.9V15.1H12C11.4 15.1 11 14.7 11 14.1C11 13.5 11.4 13.1 12 13.1H12.6V12.6C12.6 12 13 11.6 13.6 11.6C14.2 11.6 14.6 12 14.6 12.6V13.1H15.3C15.9 13.1 16.3 13.5 16.3 14.1C16.3 14.7 15.9 15.1 15.3 15.1Z" fill="white"/>
</g>
<defs>
<clipPath id="clip0_196_209">
<rect width="20" height="20" fill="white"/>
</clipPath>
</defs>
</svg>
