<svg width="16" height="16" viewBox="0 0 20 20" fill="none" xmlns="http://www.w3.org/2000/svg">
<g clip-path="url(#clip0_196_208)">
<path d="M16.74 10L16.81 9.8C16.8301 9.74856 16.8301 9.69144 16.81 9.64C16.795 9.59069 16.7631 9.54822 16.72 9.52L13.58 6.36L10.51 3.28C10.5146 3.25689 10.5146 3.23311 10.51 3.21H10.44H10.37C10.37 3.21 10.31 3.21 10.29 3.21L9.57 3.47L4.34 5.29C4.27162 5.31076 4.20966 5.34862 4.16 5.4C4.10758 5.45129 4.0726 5.51775 4.06 5.59C3.89 6.22 3.7 6.84 3.51 7.47C3 9.21 2.51 11 2 12.67L0.3 18.34C0.21 18.65 0.12 19 0 19.34L0.16 19.2L7 12.42L7.06 12.36C7.06861 12.3306 7.06861 12.2994 7.06 12.27C7.07003 12.2374 7.07003 12.2026 7.06 12.17V12.09C6.93217 11.8444 6.86047 11.5734 6.8501 11.2967C6.83972 11.02 6.89092 10.7445 7 10.49C7.10582 10.2369 7.26383 10.0091 7.46372 9.82125C7.6636 9.63343 7.90086 9.48988 8.16 9.4C8.43017 9.30933 8.71757 9.28196 9 9.32C9.2752 9.35171 9.54081 9.44025 9.78 9.58C10.0117 9.72997 10.2121 9.92356 10.37 10.15C11.2486 9.38809 12.3654 8.95628 13.528 8.92891C14.6907 8.90153 15.8265 9.28029 16.74 10Z" fill="white"/>
<path d="M8.62999 13.2C8.52355 13.2098 8.41643 13.2098 8.30999 13.2C8.13083 13.1413 7.95688 13.0677 7.78999 12.98L0.73999 20L4.73999 18.8L9.73999 17.36C9.25044 16.7969 8.89597 16.1294 8.7036 15.4084C8.51124 14.6875 8.48606 13.9322 8.62999 13.2Z" fill="white"/>
<path d="M11.25 2.62C13.08 4.44 14.87 6.24 16.68 8.05L17.49 8.88L20 7.21L12.83 0L12.75 0.1C12.25 0.85 11.75 1.63 11.25 2.35C11.25 2.35 11.25 2.35 11.25 2.41C11.2457 2.43313 11.2457 2.45687 11.25 2.48C11.2443 2.50636 11.2443 2.53364 11.25 2.56C11.2471 2.5799 11.2471 2.6001 11.25 2.62Z" fill="white"/>
<path d="M16.38 11C15.8574 10.5412 15.2267 10.2228 14.5472 10.0749C13.8677 9.92692 13.1618 9.95423 12.4957 10.1542C11.8297 10.3543 11.2255 10.7204 10.7399 11.2182C10.2543 11.716 9.90337 12.3292 9.72002 13C9.60924 13.3668 9.54868 13.7469 9.54002 14.13C9.53607 14.6902 9.64669 15.2453 9.86509 15.7612C10.0835 16.2771 10.405 16.7429 10.81 17.13C11.571 17.8756 12.5946 18.2923 13.66 18.29C14.5149 18.3086 15.3545 18.0607 16.0622 17.5807C16.7699 17.1007 17.3107 16.4124 17.6096 15.6112C17.9086 14.81 17.9508 13.9357 17.7305 13.1094C17.5101 12.2832 17.0382 11.546 16.38 11ZM15.38 15.08H12.06C11.7948 15.08 11.5404 14.9746 11.3529 14.7871C11.1654 14.5996 11.06 14.3452 11.06 14.08C11.06 13.8148 11.1654 13.5604 11.3529 13.3729C11.5404 13.1854 11.7948 13.08 12.06 13.08H15.33C15.5952 13.08 15.8496 13.1854 16.0371 13.3729C16.2247 13.5604 16.33 13.8148 16.33 14.08C16.33 14.3452 16.2247 14.5996 16.0371 14.7871C15.8496 14.9746 15.5952 15.08 15.33 15.08H15.38Z" fill="white"/>
</g>
<defs>
<clipPath id="clip0_196_208">
<rect width="20" height="20" fill="white"/>
</clipPath>
</defs>
</svg>
