<?xml version="1.0" standalone="no"?>
<!DOCTYPE svg PUBLIC "-//W3C//DTD SVG 1.1//EN" "http://www.w3.org/Graphics/SVG/1.1/DTD/svg11.dtd">
<svg t="1687159213723" class="icon" viewBox="0 0 1024 1024" version="1.1" xmlns="http://www.w3.org/2000/svg" p-id="4529" xmlns:xlink="http://www.w3.org/1999/xlink" width="16" height="16">
<path d="M778.709333 606.72a32.597333 32.597333 0 0 1-22.570666-9.386667l-241.92-241.877333a31.786667 31.786667 0 0 1-4.266667-39.722667l75.52-119.466666a120.192 120.192 0 0 1 102.826667-57.941334 149.333333 149.333333 0 0 1 103.210666 45.994667l135.722667 135.68a143.872 143.872 0 0 1 43.093333 117.333333 120.789333 120.789333 0 0 1-54.613333 88.746667l-119.466667 75.52a33.365333 33.365333 0 0 1-17.536 5.12z m-90.410666-404.010667a56.832 56.832 0 0 0-6.784 0.384 55.466667 55.466667 0 0 0-41.813334 27.733334l-61.952 97.749333 205.653334 205.653333 97.706666-61.866666a53.76 53.76 0 0 0 25.173334-41.813334 81.066667 81.066667 0 0 0-24.746667-64.853333l-135.68-135.68a83.754667 83.754667 0 0 0-57.557333-27.306667z" fill="#fff" p-id="4530"></path>
<path d="M180.864 930.133333a144 144 0 0 1-38.826667-121.6l41.813334-353.28a32.341333 32.341333 0 0 1 35.413333-28.330666 32.042667 32.042667 0 0 1 28.16 35.413333l-41.813333 353.28a80.512 80.512 0 0 0 20.565333 68.864 82.090667 82.090667 0 0 0 69.546667 20.906667l372.053333-43.946667c79.36-9.386667 96.853333-30.72 89.173333-108.373333l-10.24-177.066667a32.042667 32.042667 0 1 1 64-3.413333l10.24 175.786666c11.093333 110.08-32.426667 163.413333-145.493333 177.066667l-372.053333 43.946667a164.949333 164.949333 0 0 1-20.48 1.28 140.8 140.8 0 0 1-102.058667-40.533334zM534.613333 365.226667l-74.752-4.778667a32.042667 32.042667 0 0 1-29.866666-34.133333 31.744 31.744 0 0 1 34.133333-29.866667l74.666667 4.693333a32.042667 32.042667 0 0 1 29.866666 34.133334 32.469333 32.469333 0 0 1-32 29.866666z" fill="#fff" p-id="4531"></path>
<path d="M202.709333 909.269333a32.213333 32.213333 0 0 1 0-45.226666l135.765334-135.68a32 32 0 0 1 45.226666 45.226666l-135.68 135.68a31.914667 31.914667 0 0 1-45.226666 0zM277.333333 501.333333A224.64 224.64 0 0 1 53.333333 277.333333a220.885333 220.885333 0 0 1 84.48-174.933333 223.701333 223.701333 0 0 1 363.52 174.933333 219.050667 219.050667 0 0 1-8.533333 60.16 226.944 226.944 0 0 1-23.893333 55.466667 213.632 213.632 0 0 1-44.8 52.906667 219.776 219.776 0 0 1-146.773334 55.466666z m0-384a160 160 0 0 0-99.84 34.986667A158.08 158.08 0 0 0 117.333333 277.333333a161.834667 161.834667 0 0 0 23.04 82.346667 157.312 157.312 0 0 0 85.333334 68.693333 150.613333 150.613333 0 0 0 50.517333 8.533334 162.56 162.56 0 0 0 106.069333-39.68 169.898667 169.898667 0 0 0 32-37.546667 154.24 154.24 0 0 0 17.066667-39.722667 162.133333 162.133333 0 0 0 5.973333-42.666666A160.170667 160.170667 0 0 0 277.333333 117.333333z" fill="#fff" p-id="4532"></path>
<path d="M246.186667 349.013333V205.653333a32.213333 32.213333 0 0 1 32-32 32.213333 32.213333 0 0 1 32 32v143.36a32 32 0 0 1-64 0z" fill="#fff" p-id="4533"></path><path d="M204.842667 309.333333a32.213333 32.213333 0 0 1-32-32 32.213333 32.213333 0 0 1 32-32h143.36a32 32 0 0 1 0 64z" fill="#fff" p-id="4534"></path>
</svg>