<svg t="1682673368609" class="icon" viewBox="0 0 1024 1024" version="1.1" xmlns="http://www.w3.org/2000/svg" p-id="37650" width="16" height="16">
  <path d="M832 704c-0.7 0-1.34 0.2-2.04 0.2l-78.4-130.64c10.14-18.34 16.44-39.12 16.44-61.56s-6.28-43.22-16.44-61.56l78.4-130.64c0.7 0.02 1.34 0.2 2.04 0.2 70.7 0 128-57.3 128-128s-57.3-128-128-128c-47.26 0-88.08 25.9-110.24 64H302.24C280.08 89.9 239.26 64 192 64 121.3 64 64 121.3 64 192c0 47.26 25.9 88.08 64 110.24v419.5C89.9 743.92 64 784.74 64 832c0 70.7 57.3 128 128 128 47.26 0 88.08-25.9 110.24-64h419.5c22.18 38.1 62.98 64 110.24 64 70.7 0 128-57.3 128-128 0.02-70.7-57.28-128-127.98-128z m-576 17.76V302.24A127.65 127.65 0 0 0 302.24 256h416.72l-76.92 128.2c-0.7-0.02-1.34-0.2-2.04-0.2-70.7 0-128 57.3-128 128s57.3 128 128 128c0.7 0 1.34-0.2 2.04-0.2l76.92 128.2H302.24A127.496 127.496 0 0 0 256 721.76zM608 512c0-17.64 14.36-32 32-32s32 14.36 32 32-14.36 32-32 32-32-14.36-32-32zM864 192c0 17.64-14.36 32-32 32s-32-14.36-32-32 14.36-32 32-32 32 14.36 32 32zM192 160c17.64 0 32 14.36 32 32s-14.36 32-32 32-32-14.36-32-32 14.36-32 32-32zM160 832c0-17.64 14.36-32 32-32s32 14.36 32 32-14.36 32-32 32-32-14.36-32-32z m672 32c-17.64 0-32-14.36-32-32s14.36-32 32-32 32 14.36 32 32-14.36 32-32 32z" fill="#fff" p-id="37651"></path>
</svg>