<?xml version="1.0" standalone="no"?><!DOCTYPE svg PUBLIC "-//W3C//DTD SVG 1.1//EN" "http://www.w3.org/Graphics/SVG/1.1/DTD/svg11.dtd"><svg t="1711525438558" class="icon" viewBox="0 0 1024 1024" version="1.1" xmlns="http://www.w3.org/2000/svg" p-id="8970" xmlns:xlink="http://www.w3.org/1999/xlink" width="200" height="200"><path d="M68.253 349.325h162.675c8.156 0 32.477 8.156 40.633 16.311l56.944 56.944c16.311 24.467 48.788 24.467 73.109 0 24.467-16.311 24.467-48.788 0-73.109l-56.944-56.944c-24.321-24.321-73.109-48.788-113.887-48.788H68.254c-32.477 0-48.788 24.467-48.788 48.788 0 32.331 24.467 56.798 48.788 56.798z m609.923 0h89.42v65.099c0 16.311 8.156 24.467 24.467 16.311l186.996-121.897c16.311-8.156 16.311-24.467 0-32.477L792.063 154.464c-16.311-8.156-24.467 0-24.467 16.311v89.275h-89.42c-81.265 0-97.575 40.633-154.519 97.575L336.661 625.594c-32.477 32.477-130.052 65.099-178.841 65.099H68.4c-32.477 0-48.788 24.321-48.788 48.788 0 32.477 24.321 48.788 48.788 48.788h89.42c81.265 0 195.152-40.633 252.095-97.575l186.996-268.26c40.633-40.633 32.477-73.109 81.265-73.109z m300.883 373.992L792.063 593.265c-16.311-8.156-24.467 0-24.467 16.311v81.265h-89.42c-8.156 0-32.477-8.156-40.633-16.311l-56.944-56.944c-16.311-24.467-48.788-24.467-73.109 0-24.321 16.311-24.321 48.788 0 73.109l56.944 56.944c24.467 24.321 73.109 48.788 113.887 48.788h89.42v65.099c0 16.311 8.156 24.321 24.467 16.311L979.204 755.94c16.02-8.156 16.02-24.467-0.146-32.622z" p-id="8971"></path></svg>