<svg width="16" height="16" viewBox="0 0 16 16" fill="none" xmlns="http://www.w3.org/2000/svg">
<path d="M13.5004 4.12512C13.6379 4.12512 13.7504 4.01262 13.7504 3.87512V1.00012C13.7504 0.862622 13.6379 0.750122 13.5004 0.750122H10.6254C10.4879 0.750122 10.3754 0.862622 10.3754 1.00012V1.87512H3.62537V1.00012C3.62537 0.862622 3.51287 0.750122 3.37537 0.750122H0.500366C0.362866 0.750122 0.250366 0.862622 0.250366 1.00012V3.87512C0.250366 4.01262 0.362866 4.12512 0.500366 4.12512H1.37537V7.87512H0.500366C0.362866 7.87512 0.250366 7.98762 0.250366 8.12512V11.0001C0.250366 11.1376 0.362866 11.2501 0.500366 11.2501H3.37537C3.51287 11.2501 3.62537 11.1376 3.62537 11.0001V10.1251H10.3754V11.0001C10.3754 11.1376 10.4879 11.2501 10.6254 11.2501H13.5004C13.6379 11.2501 13.7504 11.1376 13.7504 11.0001V8.12512C13.7504 7.98762 13.6379 7.87512 13.5004 7.87512H12.6254V4.12512H13.5004ZM11.3754 1.75012H12.7504V3.12512H11.3754V1.75012ZM1.25037 3.12512V1.75012H2.62537V3.12512H1.25037ZM2.62537 10.2501H1.25037V8.87512H2.62537V10.2501ZM12.7504 8.87512V10.2501H11.3754V8.87512H12.7504ZM11.5004 7.87512H10.6254C10.4879 7.87512 10.3754 7.98762 10.3754 8.12512V9.00012H3.62537V8.12512C3.62537 7.98762 3.51287 7.87512 3.37537 7.87512H2.50037V4.12512H3.37537C3.51287 4.12512 3.62537 4.01262 3.62537 3.87512V3.00012H10.3754V3.87512C10.3754 4.01262 10.4879 4.12512 10.6254 4.12512H11.5004V7.87512Z" fill="white"/>
</svg>
