<svg xmlns="http://www.w3.org/2000/svg" viewBox="0 0 34.02 34.02"><defs><style>.cls-1{fill:#fff;}.cls-2{fill:#fcfefe;}.cls-3{fill:none;}</style></defs><path class="cls-1" d="M6.26,15.54l5.88,3.88a1,1,0,0,1,0,1.56L6.1,25.29a.9.9,0,0,1-1.41-.79l.19-8.2A.9.9,0,0,1,6.26,15.54Z"/><path class="cls-1" d="M7.58,29.17,23.43,17.7a1.71,1.71,0,0,1,2.25.22L29,21.42v7.75Z"/><path class="cls-2" d="M31,4.35a.88.88,0,0,0-.11-1.19,1,1,0,0,0-1.19-.09c-3.29,2.56-4.66,2.56-8,0a.87.87,0,0,0-1.19.09.87.87,0,0,0-.09,1.19c2.56,3.29,2.56,4.66,0,8a.92.92,0,0,0,1.28,1.28c3.29-2.56,4.66-2.56,8,0a1.28,1.28,0,0,0,.55.18.91.91,0,0,0,.64-.27A.87.87,0,0,0,31,12.35C28.35,9,28.35,7.73,31,4.35Z"/><rect class="cls-3" x="4.07" y="4.13" width="26.29" height="26.29"/><path class="cls-3" d="M6.39,28.56H28.88V17H16.49V13.62a2.56,2.56,0,0,1-2,.93,2.63,2.63,0,0,1-2.59-2.72,2.66,2.66,0,0,1,2.6-2.67,2.57,2.57,0,0,1,2,.95v-4H6.39Z"/><path class="cls-1" d="M14.51,9.16a2.66,2.66,0,0,0-2.6,2.67,2.63,2.63,0,0,0,2.59,2.72,2.56,2.56,0,0,0,2-.93V10.11A2.57,2.57,0,0,0,14.51,9.16Z"/><path class="cls-1" d="M28.88,28.56H6.39V6.1h10.1V4.25H5.42a.88.88,0,0,0-.89.88V30.41H30.74V17H28.88Z"/><path class="cls-1" d="M17.14,11.87a2.74,2.74,0,0,0-.65-1.76v3.51A2.7,2.7,0,0,0,17.14,11.87Z"/></svg>