<svg width="24" height="24" viewBox="0 0 24 24" fill="none" xmlns="http://www.w3.org/2000/svg">
<path fill-rule="evenodd" clip-rule="evenodd" d="M16 4.4C16 4.17909 16.1791 4 16.4 4H17.6C17.8209 4 18 4.17909 18 4.4V6H21.6C21.8209 6 22 6.17909 22 6.4V7.6C22 7.82091 21.8209 8 21.6 8H18V9.6C18 9.82091 17.8209 10 17.6 10H16.4C16.1791 10 16 9.82091 16 9.6V7.6V6.4V4.4ZM2.4 6C2.17909 6 2 6.17909 2 6.4V7.6C2 7.82091 2.17909 8 2.4 8H13.6C13.8209 8 14 7.82091 14 7.6V6.4C14 6.17909 13.8209 6 13.6 6H2.4ZM10.4 16C10.1791 16 10 16.1791 10 16.4V17.6C10 17.8209 10.1791 18 10.4 18H21.6C21.8209 18 22 17.8209 22 17.6V16.4C22 16.1791 21.8209 16 21.6 16H10.4ZM2.4 16C2.17909 16 2 16.1791 2 16.4V17.6C2 17.8209 2.17909 18 2.4 18H6V19.6C6 19.8209 6.17909 20 6.4 20H7.6C7.82091 20 8 19.8209 8 19.6V17.6V16.4V14.4C8 14.1791 7.82091 14 7.6 14H6.4C6.17909 14 6 14.1791 6 14.4V16H2.4Z" fill="#434343"/>
</svg>
