<?xml version="1.0" standalone="no"?><!DOCTYPE svg PUBLIC "-//W3C//DTD SVG 1.1//EN" "http://www.w3.org/Graphics/SVG/1.1/DTD/svg11.dtd"><svg t="1688366356708" class="icon" viewBox="0 0 1024 1024" version="1.1" xmlns="http://www.w3.org/2000/svg" p-id="13272" xmlns:xlink="http://www.w3.org/1999/xlink" width="16" height="16"><path d="M629.333333 704c55.850667 0 77.568 24.832 94.08 79.957333l2.901334 10.154667c7.808 28.032 12.458667 36.437333 21.888 40.32 11.050667 4.565333 18.432 3.882667 29.994666-2.048l6.272-3.498667c2.261333-1.365333 4.693333-2.944 7.509334-4.778666l28.288-19.242667c26.282667-17.28 49.92-28.714667 78.634666-35.925333a32 32 0 1 1 15.530667 62.122666 171.946667 171.946667 0 0 0-48.853333 20.864l-12.757334 8.106667-20.437333 14.037333c-9.813333 6.656-17.194667 11.264-24.917333 15.232-27.434667 14.08-54.186667 16.426667-83.626667 4.266667-31.786667-13.056-44.629333-33.28-56.618667-73.429333l-6.656-23.125334c-7.722667-25.173333-13.013333-29.013333-31.232-29.013333-13.226667 0-26.88 6.613333-45.568 22.314667l-7.893333 6.826666-39.253333 37.376c-60.117333 56.490667-111.36 83.882667-184.661334 83.882667-71.978667 0-134.186667-10.794667-186.453333-32.768l125.781333-34.346667c19.114667 2.133333 39.296 3.114667 60.672 3.114667 50.432 0 86.656-17.664 131.669334-58.112l11.008-10.197333 22.698666-21.76c10.112-9.728 17.664-16.64 25.258667-23.04 29.184-24.490667 55.68-37.290667 86.741333-37.290667z m182.613334-577.28a152.661333 152.661333 0 0 1 0 215.893333l-12.288 12.330667c49.152 59.776 47.36 123.136 1.706666 168.96l-85.418666 85.418667a32 32 0 0 1-45.226667-45.312l85.290667-85.290667c20.693333-20.736 23.082667-46.506667-1.706667-78.421333L386.645333 768a96 96 0 0 1-42.624 24.746667l-218.282666 59.52a32 32 0 0 1-39.253334-39.296l59.52-218.282667a96 96 0 0 1 24.746667-42.624L596.053333 126.72a152.661333 152.661333 0 0 1 215.893334 0z" fill="#ffffff" p-id="13273"></path></svg>