<?xml version="1.0" standalone="no"?><!DOCTYPE svg PUBLIC "-//W3C//DTD SVG 1.1//EN" "http://www.w3.org/Graphics/SVG/1.1/DTD/svg11.dtd"><svg class="icon" width="16px" height="15.06px" viewBox="0 0 1088 1024" version="1.1" xmlns="http://www.w3.org/2000/svg"><path fill="#ffffff" d="M1021.376 192V2.624H832v65.344H189.376V2.624H0V192h64.704v642.624H0V1024h189.376v-65.344H832V1024h189.376v-189.376h-65.984V192h65.984zM892.032 60.032h69.376v72h-69.376V60.032z m-832 0h69.376v72H60.032V60.032z m69.312 903.936H59.968v-72h4.672v0.704h58.688v-0.704h6.016v72z m832-71.936v72h-69.376v-72h4.672v0.704h58.688v-0.704h6.016z m-64.64-57.408H832v65.344H189.376v-65.344H123.392V192h65.984V126.656H832V192h64.704v642.624z"  /></svg>