<?xml version="1.0" standalone="no"?><!DOCTYPE svg PUBLIC "-//W3C//DTD SVG 1.1//EN" "http://www.w3.org/Graphics/SVG/1.1/DTD/svg11.dtd"><svg t="1687770397924" class="icon" viewBox="0 0 1024 1024" version="1.1" xmlns="http://www.w3.org/2000/svg" p-id="37265" xmlns:xlink="http://www.w3.org/1999/xlink" width="16" height="16">
<path d="M945.6 77.184L878.72 274.496l124.544 166.848-208.256-2.624-120.256 169.984-61.824-198.848-198.784-61.76 169.984-120.32L581.504 19.52l166.784 124.544 197.312-66.88z" fill="#ffffff" p-id="37266"></path>
<path d="M118.528 994.112c-24.96 25.024-59.008 31.488-76.032 14.464l-25.984-25.92c-17.024-17.024-10.496-51.008 14.528-76.032L690.432 247.232c25.024-25.024 59.008-31.488 76.032-14.528l25.984 25.984c17.024 17.024 10.56 51.008-14.528 76.032L118.528 994.112zM864.704 892.736s10.368-67.776-39.04-116.672c-49.472-48.768-119.68-40.064-119.68-40.064s81.024 1.28 121.28-38.592c40.384-39.872 37.504-118.208 37.504-118.208s8.512 86.4 40.576 118.208c32.32 31.744 118.208 38.592 118.208 38.592s-80.704 6.528-116.416 41.728c-35.84 35.392-42.432 115.008-42.432 115.008zM544.704 1020.736s10.368-67.776-39.04-116.672c-49.472-48.768-119.68-40.064-119.68-40.064s81.024 1.28 121.28-38.592c40.384-39.872 37.504-118.208 37.504-118.208s8.512 86.4 40.576 118.208c32.32 31.744 118.208 38.592 118.208 38.592s-80.704 6.528-116.416 41.728c-35.84 35.392-42.432 115.008-42.432 115.008zM224.704 316.736s10.368-67.776-39.04-116.672c-49.472-48.768-119.68-40.064-119.68-40.064s81.024 1.28 121.28-38.592c40.384-39.872 37.504-118.208 37.504-118.208s8.512 86.4 40.576 118.208c32.32 31.744 118.208 38.592 118.208 38.592s-80.704 6.528-116.416 41.728c-35.84 35.392-42.432 115.008-42.432 115.008z" fill="#ffffff" p-id="37267"></path>
</svg>