<svg width="16" height="12" viewBox="0 0 16 12" fill="white" xmlns="http://www.w3.org/2000/svg">
<path d="M15.6822 5.5404C13.9894 1.97433 11.4305 0.179688 8.0001 0.179688C4.56796 0.179688 2.01082 1.97433 0.31796 5.54219C0.250059 5.68597 0.214844 5.843 0.214844 6.00201C0.214844 6.16102 0.250059 6.31805 0.31796 6.46183C2.01082 10.0279 4.56975 11.8225 8.0001 11.8225C11.4322 11.8225 13.9894 10.0279 15.6822 6.46005C15.8197 6.17076 15.8197 5.83505 15.6822 5.5404ZM8.0001 10.5368C5.11975 10.5368 3.01082 9.07612 1.52332 6.00112C3.01082 2.92612 5.11975 1.4654 8.0001 1.4654C10.8805 1.4654 12.9894 2.92612 14.4769 6.00112C12.9912 9.07612 10.8822 10.5368 8.0001 10.5368ZM7.92867 2.85826C6.19296 2.85826 4.78582 4.2654 4.78582 6.00112C4.78582 7.73683 6.19296 9.14397 7.92867 9.14397C9.66439 9.14397 11.0715 7.73683 11.0715 6.00112C11.0715 4.2654 9.66439 2.85826 7.92867 2.85826ZM7.92867 8.00112C6.82332 8.00112 5.92867 7.10647 5.92867 6.00112C5.92867 4.89576 6.82332 4.00112 7.92867 4.00112C9.03403 4.00112 9.92868 4.89576 9.92868 6.00112C9.92868 7.10647 9.03403 8.00112 7.92867 8.00112Z"/>
</svg>
